<?xml version="1.0" encoding="UTF-8"?>
<svg width="96px" height="96px" viewBox="0 0 96 96" version="1.1" xmlns="http://www.w3.org/2000/svg" xmlns:xlink="http://www.w3.org/1999/xlink">
    <!-- Generator: Sketch 45.1 (43504) - http://www.bohemiancoding.com/sketch -->
    <title>icon/home/buying</title>
    <desc>Created with Sketch.</desc>
    <defs></defs>
    <g id="Symbols" stroke="none" stroke-width="1" fill="none" fill-rule="evenodd" opacity="0.9">
        <g id="icon/home/buying" stroke="#373E4D">
            <path d="M74.1012994,23.8194208 C75.3023216,19.2555366 76.3432074,13.890971 76.8236163,11.1686542 L78.5050473,11.1686542 C79.8662057,11.1686542 81.147296,10.6081772 82.1081137,9.64735945 C83.2290677,8.52640545 83.7895447,6.92504259 83.4692722,5.16354344 C83.0689314,2.76149915 80.8270234,1 78.344911,1 L18.0535992,1 C16.6924408,1 15.4113505,1.560477 14.4505328,2.52129472 C13.5697832,3.40204429 13.0093062,4.60306644 13.0093062,5.96422487 C12.9292381,8.84667802 15.4113505,11.1686542 18.2938037,11.1686542 L19.7350302,11.1686542 C21.6566657,21.8977853 26.0604135,44.8773424 42.8747236,47.9199319 C42.8747236,47.9199319 35.5885226,48.9608177 30.3040251,56.0068143 C23.498233,64.4940375 21.0161205,77.5451448 19.7350302,84.8313458 L18.0535992,84.8313458 C16.6924408,84.8313458 15.4113505,85.3918228 14.4505328,86.3526405 C13.3295788,87.4735945 12.7691018,89.0749574 13.0893744,90.8364566 C13.4897151,93.2385009 15.7316231,95 18.2137355,95 L78.5050473,95 C79.8662057,95 81.147296,94.439523 82.1081137,93.5587734 C82.9888633,92.6780239 83.5493403,91.4770017 83.5493403,90.1158433 C83.6294084,87.2333901 81.147296,84.911414 78.2648429,84.911414 L76.8236163,84.911414 C74.9019808,74.1822828 70.498233,51.2827939 53.7639911,48.1601363 C53.6839229,48.1601363 53.6839229,48 53.7639911,48 C61.2903965,46.6388416 69.4573471,37.5110733 72.2597321,30.2248722 C73.300618,27.4224872 61.8508735,33.988075 48.7997662,33.988075 C41.5936333,33.988075 31.0246384,33.0272572 31.0246384,29.9045997 C31.0246384,27.9829642 38.3909076,25.5008518 43.9956776,27.7427598 C49.6004476,29.9846678 48.8798343,32.6269165 48.9599025,33.988075 C49.0399706,35.3492334 48.9599025,51.8432709 48.9599025,51.8432709 L48.9599025,54.4855196 L48.9599025,67.9369676 C48.9599025,78.746167 69.0570064,77.3049404 69.0570064,83.6303237 C69.0570064,84.911414 66.8150984,84.9914821 65.45394,84.9914821 L29.1830711,84.9914821 C28.2222534,84.9914821 26.7009587,84.7512777 26.7009587,83.7103918 C26.7009587,77.7853492 44.1558139,81.2282794 47.6788122,71.0596252" id="Shape"></path>
        </g>
    </g>
</svg>