<?xml version="1.0" encoding="UTF-8"?>
<svg width="96px" height="96px" viewBox="0 0 96 96" version="1.1" xmlns="http://www.w3.org/2000/svg" xmlns:xlink="http://www.w3.org/1999/xlink">
    <!-- Generator: Sketch 45.1 (43504) - http://www.bohemiancoding.com/sketch -->
    <title>icon/home/expensive</title>
    <desc>Created with Sketch.</desc>
    <defs></defs>
    <g id="Symbols" stroke="none" stroke-width="1" fill="none" fill-rule="evenodd" opacity="0.9">
        <g id="icon/home/expensive" stroke="#373E4D">
            <path d="M57.2879046,92.5924351 C89.39523,91.2312767 95,81.7832358 95,61.9263363 C95,39.9876651 63.132879,14.9263363 48.7206133,14.9263363 C40.0732538,14.9263363 32.3867121,10.842861 32.3867121,6.35904499 C32.3867121,-1.00722417 37.0306644,6.03877242 48.9608177,6.03877242 C60.6507666,6.03877242 65.1345826,-0.927156027 65.1345826,6.51918128 C65.1345826,11.1631336 57.3679727,14.9263363 48.8006814,14.9263363 L48.8006814,14.9263363 C36.5502555,14.9263363 1,38.8667111 1,60.4050416 C1,81.9433721 9.80749574,92.8326395 48.8006814,92.8326395 L48.8006814,71.2142409 C48.8006814,71.2142409 44.076661,71.2142409 37.350937,71.2142409 C37.350937,77.7798286 42.6354344,83.0643261 49.2010221,83.0643261 C55.7666099,83.0643261 61.0511073,77.7798286 61.0511073,71.2142409 C61.0511073,64.6486532 55.9267462,59.2840876 49.0408859,59.2840876 C42.39523,59.2840876 37.1908007,54.1597264 37.1908007,47.5941387 C37.1908007,41.028551 42.4752981,35.7440535 49.0408859,35.7440535 C60.890971,35.7440535 60.890971,47.5941387 60.890971,47.5941387 C57.2879046,47.5941387 51.6030664,47.5941387 48.7206133,47.5941387 L48.6405451,27.9774436" id="Shape"></path>
        </g>
    </g>
</svg>