<?xml version="1.0" encoding="UTF-8"?>
<svg width="96px" height="96px" viewBox="0 0 96 96" version="1.1" xmlns="http://www.w3.org/2000/svg" xmlns:xlink="http://www.w3.org/1999/xlink">
    <!-- Generator: Sketch 45.1 (43504) - http://www.bohemiancoding.com/sketch -->
    <title>icon/home/flexibility</title>
    <desc>Created with Sketch.</desc>
    <defs></defs>
    <g id="Symbols" stroke="none" stroke-width="1" fill="none" fill-rule="evenodd">
        <g id="icon/home/flexibility" stroke="#373E4D">
            <path d="M65.3342102,44.4283753 C86.5220047,33.9339391 99.9864338,-1.31245603 93.2542192,8.98478786 C86.5220047,19.2811669 66.9186677,24.2308668 52.0678383,35.3194745 C37.2170089,46.4080823 47.3153307,69.9716981 47.3153307,69.9716981 C47.3153307,69.9716981 48.3056167,70.7639268 57.0175382,68.3872406 C65.7303246,66.0114192 76.0267036,53.338354 78.0072755,52.1508758 C79.9869824,50.9625326 90.4814186,55.1208687 86.7200619,52.7450473 C82.9569754,50.3683611 82.7589182,44.2303181 77.4131039,43.8342037 C72.0664248,43.4380894 67.5128393,46.4080823 63.7497527,47.9925397 C59.988396,49.5761324 53.4533737,45.8147756 48.3056167,42.8274851 C43.1569947,39.8401946 35.8306086,32.1514244 26.3264583,27.3997817 C16.8214432,22.6472741 5.73283545,8.78673067 3.15895691,5.22170134 C0.585078381,1.65753687 -0.00909317605,6.21198726 3.15895691,14.7267165 C6.327007,23.2405808 20.3856077,42.4478034 23.5536578,45.0225468 C26.7217078,47.5964254 36.2613181,58.2032958 36.2613181,58.2032958 C34.8411876,62.4472548 32.2007134,65.2589749 31.9014654,65.5815746 C12.9874366,77.1553792 7.18496651,82.0073478 8.90088554,82.4467061 C12.4858071,83.3626125 26.919765,75.5155695 26.919765,75.5155695 C22.1335272,78.1733413 3.36133849,100.36007 30.4847944,79.2777912 C30.4847944,79.2777912 23.3556006,109.177507 38.2072948,77.2980842" id="Stroke-1"></path>
        </g>
    </g>
</svg>