<?xml version="1.0" encoding="UTF-8"?>
<svg width="96px" height="96px" viewBox="0 0 96 96" version="1.1" xmlns="http://www.w3.org/2000/svg" xmlns:xlink="http://www.w3.org/1999/xlink">
    <!-- Generator: Sketch 45.1 (43504) - http://www.bohemiancoding.com/sketch -->
    <title>icon/home/getitright</title>
    <desc>Created with Sketch.</desc>
    <defs></defs>
    <g id="Symbols" stroke="none" stroke-width="1" fill="none" fill-rule="evenodd">
        <g id="icon/home/getitright" stroke="#373E4D">
            <path d="M19.6032703,47.0999175 C19.6032703,47.0999175 29.9952489,50.1706929 32.6764296,48.360666 C36.8014515,45.5758164 42.6537324,35.2841626 44.7463408,32.146504 C46.6508402,29.291427 51.6746052,23.9992931 56.4065923,18.5098537 C59.0225618,15.473356 60.3476854,14.6172509 61.3760147,12.4719719 C62.2078746,10.7363527 62.9001159,7.76004984 63.5045729,5.22601225 C64.8564497,-0.441503703 67.8135236,0.524958672 69.4187207,2.74631726 C71.7679934,5.99684124 72.4970204,11.1292915 71.7847142,15.8529182 C71.0247537,20.9000924 64.6708488,29.3516219 62.1359752,34.1329353 C59.6011016,38.9150848 64.2085186,39.5998017 73.6716567,40.3087637 C79.7153907,40.7610614 83.5620113,41.0979855 86.2339955,42.5083852 C87.74472,43.3051315 89.599057,44.3819511 90.1483354,44.9571467 C91.4149361,46.2839424 91.121486,51.256709 89.4460617,53.8910714 C88.9260447,54.7087186 89.2228389,55.7930627 90.0948288,56.216099 C91.1841891,56.7444763 92.453298,57.550419 92.7400597,59.9531983 C92.7400597,63.2212791 91.2786616,65.2269394 89.9660786,66.3689702 C89.1751847,67.0561951 89.1024492,68.2082584 89.7336595,69.0442985 C89.8808025,69.2382598 90.0128969,69.4547942 90.120746,69.6939017 C90.9910638,71.6326787 90.7962664,75.2727974 88.0080727,76.9557462 C86.8560094,77.7040021 85.4765432,78.2591327 84.3403647,78.6361868 C83.263545,78.9923399 82.8530493,84.6916254 80.8214718,86.8335601 C80.2228671,87.4647704 70.6326509,91.478599 66.9682871,91.478599 C48.4984888,91.478599 39.4717637,84.5670554 18.5523679,84.2167546 C-2.36702794,83.8681258 3.5337432,95 10.1242474,95 C24.1504925,95 8.58175343,82.8005026 8.58175343,58.7141868 C8.58175343,32.1757654 25.9646995,33.5752966 27.6543366,44.2022025" id="Stroke-5"></path>
        </g>
    </g>
</svg>