<svg width="307px" height="215px" viewBox="0 0 307 215" version="1.1" xmlns="http://www.w3.org/2000/svg" xmlns:xlink="http://www.w3.org/1999/xlink">
  <g id="Home-/-About" stroke="none" stroke-width="1" fill="none" fill-rule="evenodd">
    <g id="1.0-Home-Desktop" transform="translate(-935.000000, -2540.000000)">
      <g id="How-It-Works" transform="translate(164.000000, 1152.000000)">
        <g id="5_subsections_2.0_r7-05" transform="translate(771.000000, 1388.000000)">
          <g id="Group" opacity="0.05" transform="translate(0.000000, 21.000000)" fill-rule="nonzero" fill="#324C85">
            <path d="M160.09,110.54 L158,110.54 L158,138.4 L155.06,141.34 L152.13,138.4 L152.13,110.54 L150.07,110.54 L150.07,101.87 L160.07,101.87 L160.09,110.54 Z M14.84,126.88 C19.2022001,131.320486 24.5960364,134.611757 30.54,136.46 C41.67,139.89 53.38,137.95 64.75,137.26 C76.12,136.57 86.81,139.16 98.04,138.78 C100.910594,138.695121 103.783652,138.802025 106.64,139.1 C113.209343,139.835533 119.723339,141.001372 126.14,142.59 C141.67,146.24 157.27,150.35 173.32,147.87 C178.51,147.07 183.63,145.87 188.73,144.67 C193.13,143.59 197.73,141.54 202.24,141.26 C205.24,141.07 207.13,141.96 209.13,144.26 C207.73,142.65 219.57,138.15 220.61,137.96 C223.47,137.44 229.19,137.34 231.15,139.77 C231.54886,140.063266 231.888236,140.429793 232.15,140.85 C232.21,143.64 232.53,146.13 230.4,148.62 L230.06,148.99 C230.143301,150.373565 230.021994,151.761849 229.7,153.11 C225.8,156.38 219.43,163.35 218.7,163.35 C226.6,165.56 236.81,169.26 238.38,169.45 C245.87,170.35 253.32,171.85 260.88,172.17 C266.39,172.41 271.09,172.82 274.94,168.17 C276.62,166.17 278.12,163.84 280.42,162.58 C286.3,159.34 306.22,165.24 306.13,153.58 C306.06,145.21 307.64,134.24 303.13,126.7 C299.77,121.05 292.99,117.08 295.48,109.63 C296.66,106.63 298.72,104.04 300.3,101.21 C304.024294,94.4563284 304.916242,86.5007299 302.78,79.09 C299.78,69.01 291.54,66.56 286.18,58.83 C282.96,54.18 281.63,50.54 275.18,51.37 C269.6,52.09 264.64,56.19 259.11,57.44 C252.39,58.96 246.79,51.74 240.5,49.44 C235.86,47.71 231.04,45.56 226.18,44.51 C223.63,43.96 197.91,40.36 198.18,39.38 C198.11,39.61 198.05,39.84 197.98,40.06 C197.62,41.25 197.1,40.21 196.37,40.15 L196.13,40.15 C195.884582,40.1387268 195.638804,40.1622946 195.4,40.22 C193.96,40.5 192.56,41.65 191.01,40.75 C187.75,41.21 184.35,41.82 182.01,42.28 C173.01,44.1 165.26,48.92 162.1,47.5 C158.94,46.08 157.36,43.5 160.43,38.8 C161.155183,37.7002801 162.011474,36.6928781 162.98,35.8 L160.31,35.71 C159,39.27 156.94,42.42 153.74,43.04 C152.707907,43.2355247 151.711632,42.560917 151.51,41.53 C151.03,39.07 151.85,36.76 148.93,35.53 C147.228725,34.9580605 145.418306,34.7869435 143.64,35.03 C126.35,35.96 108.64,30.91 91.55,34.03 C78,36.42 64,40.56 52.33,30.48 C42.33,21.84 34.62,-8.52 24.2,2.72 C22,5.1 9.47,29.9 9,32.83 C7.85,39.38 20.26,34.83 17.39,40.83 C13.32,49.32 5.5,55.56 1.93,64.33 C-1.18,71.97 1.77,79.54 5.42,86.33 C7.66,90.51 12.42,94.67 12.42,99.73 C12.42,105.56 6.84,108.61 8,115.08 C8.79298478,118.693773 10.5165953,122.037577 13,124.78 C13.58,125.52 14.1933333,126.22 14.84,126.88 Z" id="Shape"></path>
          </g>
          <path d="M235.21,47.22 C235.21,47.22 241.74,39.54 250.76,36.22 C257.5,33.75 265.61,33.73 273.45,41.22 C283.13,50.43 261.59,41.43 250.76,36.22 C249.96,35.85 249.23,35.49 248.57,35.16 C247.777581,34.7888216 247.009386,34.3679846 246.27,33.9 C239.94,29.8 219.41,14.9 214.98,12.9 C210.55,10.9 197.44,1.69 192.1,1 C188.277056,0.476100795 184.436598,1.831995 181.79,4.64 C180.57,5.98 174.9,9.73 168.86,13.94 C167.8,14.67 166.74,15.42 165.68,16.18 C158.58,21.24 158.07,22.97 158.07,23.45 C156.81276,27.7241882 155.289796,31.9156808 153.51,36 C152.03145,39.8441016 150.975244,43.8375681 150.36,47.91 C150.29,49.06 150.53,52.91 150.87,56.48 C151.1,58.94 151.38,61.28 151.62,62.56 C151.853795,63.5578812 152.833503,64.1933677 153.84,64 C157.04,63.39 159.1,60.23 160.41,56.67 C161.666733,52.9293758 162.423291,49.0389867 162.66,45.1 C166.46,41.31 169.3,32.61 169.3,32.61 C170.002078,32.4737389 170.696396,32.3001594 171.38,32.09 C175.17,30.98 179.68,28.88 182.73,28.35 C186.37,27.72 187.8,28.35 190.95,31.19 C194.1,34.03 191.54,40.38 191.23,43.19 C191.11,44.19 189.57,45.25 187.38,46.26 C183.5,48.05 177.58,49.7 174.05,50.91 C169.86,52.35 166.05,53.97 163.05,56.73 C162.081474,57.6228781 161.225183,58.6302801 160.5,59.73 C157.43,64.47 159,67 162.17,68.43 C165.34,69.86 173.07,65.03 182.08,63.21 C184.38,62.75 187.77,62.14 191.08,61.68 C192.62,61.46 194.08,61.27 195.47,61.15 L196.2,61.08 L196.44,61.08 C197.03,61.08 197.56,61 198.05,60.99 C198.532848,60.9593652 199.017152,60.9593652 199.5,60.99 C201.81,61.23 207.26,64.41 214.11,64.43 L214.57,64.43 C217.144465,64.43235 219.696088,63.9471345 222.09,63" id="Shape" stroke="#20293A" opacity="0.9"></path>
          <path d="M138.37,35.14 C136.7,35.5 134.75,35.39 132.48,33.14 C129.24,29.9 137.28,29.2 145.12,23.97" id="Shape" stroke="#20293A" opacity="0.9"></path>
          <path d="M171.38,32.14 C174.22807,34.2788214 176.964973,36.5617989 179.58,38.98 C181.22,40.56 185.93,45.37 187.4,46.33" id="Shape" stroke="#20293A" opacity="0.9"></path>
          <path d="M145.13,24 C144.02,26.53 142.01,32.7 142.01,32.7 L141.35,34.7 C139.768313,36.7097314 138.827575,39.1486825 138.65,41.7 C138.65,48.97 140.15,46.35 138.65,53.87 C138.11,56.58 149.4,57.66 148.65,43.12 C148.65,43.12 150.38,30.95 153.52,26.36 L154.26,24.83 C154.618001,24.1189364 155.243949,23.5793254 156,23.33 C156.685754,23.3048947 157.368614,23.4312238 158,23.7" id="Shape" stroke="#20293A" opacity="0.9"></path>
          <path d="M168.87,14 C168.87,14 151.18,18.17 148.77,18.29 C147.18,18.37 146.24,21.45 145.14,23.98" id="Shape" stroke="#20293A" opacity="0.9"></path>
          <path d="M93.47,166.29 C99.26,165.29 113.47,164.55 122.47,175.61 C125.47,179.33 124.15,184.36 135.96,185.08 C138.233824,185.340135 140.473256,185.843002 142.64,186.58 C150.822463,183.907807 159.634278,183.851881 167.85,186.42 C177.47,189.35 176.56,193.86 174.91,197.36 C174.157522,198.962152 172.658759,200.086224 170.91,200.36 C159.91,202.05 157.28,204.66 148.2,206.67 C138.48,208.82 139.67,204.29 126.63,206.18 C113.59,208.07 109.56,204.28 106.48,200.97 C103.4,197.66 85.88,198.73 75.93,194.46 C68.35,191.21 51.3,188.61 43.58,189.03 C29.21,189.82 19.87,213.35 36.09,204.13 C56.63,192.44 36.66,173.55 57.7,163.05" id="Shape" stroke="#20293A" opacity="0.9"></path>
          <path d="M207.94,163.91 C205.42,160.64 196.3,163.13 192.19,164.8 C188.08,166.47 184.39,166.68 182.19,167.47 C179.819473,168.230176 177.357318,168.667444 174.87,168.77 C172.453163,169.09912 170.095906,169.772622 167.87,170.77 C159.02,167.61 145.82,169.54 145.82,169.54 C133.98,165.08 115.82,158.27 104.02,160.05" id="Shape" stroke="#20293A" opacity="0.9"></path>
          <path d="M230.86,167.14 C235.72,157.06 226.52,159.08 221.14,161.47 C215.76,163.86 208.14,171.99 208.14,171.99 C208.14,171.99 206.56,172.67 203.08,174.25 C199.6,175.83 192.08,181.84 192.08,181.84 C189.125819,181.68513 186.164184,181.751984 183.22,182.04 L182.35,182.04 C179.35,182.36 177.23,183.04 175.58,184.37" id="Shape" stroke="#20293A" opacity="0.9"></path>
          <path d="M153,212.49 C157.82,212.65 158.62,213.43 160.51,213.69 L161.57,213.86 C163.47,214.13 165.4,213.71 170.38,211.14 C180.38,206 195.51,201.9 198.19,200.95 C200.87,200 210.83,188.78 215.1,186.89 C219.37,185 226.49,175.89 229.48,174.25 C232.97,172.36 230.38,165.49 224.58,166.35 C218.14411,167.525889 212.333372,170.945013 208.18,176 C208.18,176 193.12,184.66 192.79,186.59 C192.59,187.77 182.39,186.45 179.57,189.2" id="Shape" stroke="#20293A" opacity="0.9"></path>
          <path d="M168,176.54 C169.900114,176.882693 171.75528,177.439578 173.53,178.2 C175.27,179.15 179.06,174.72 188.7,175.2 C191.371803,174.99963 193.888309,173.867025 195.81,172 C198.97,168.88 207.89,166.24 207.89,166.24 C207.89,166.24 222.65,153.86 226.22,159.67" id="Shape" stroke="#20293A" opacity="0.9"></path>
          <polyline id="Shape" stroke="#20293A" opacity="0.9" points="150.09 120.55 150.09 122.87 150.09 131.54 152.15 131.54 152.15 133.53 152.15 159.4 155.08 162.35 158.03 159.4 158.03 133.14 158.03 131.54 160.09 131.54 160.09 122.87 160.09 120.55"></polyline>
          <path d="M155.09,90.63 L155.09,74.89" id="Shape" stroke="#20293A" opacity="0.9"></path>
          <path d="M172.88,95.69 L172.88,119 C172.874504,121.162676 171.122676,122.914504 168.96,122.92 L141.21,122.92 C139.047324,122.914504 137.295496,121.162676 137.29,119 L137.29,95.69 C137.294655,91.4772029 139.728738,87.6449828 143.54,85.85 C147.83,83.85 153.11,81.57 155.09,81.57 C157.07,81.57 162.35,83.83 166.64,85.85 C170.447364,87.6478741 172.877172,91.4794935 172.88,95.69 L172.88,95.69 Z" id="Shape" fill="#37E6C8" fill-rule="nonzero"></path>
          <path d="M172.88,95.69 L172.88,119 C172.874504,121.162676 171.122676,122.914504 168.96,122.92 L141.21,122.92 C139.047324,122.914504 137.295496,121.162676 137.29,119 L137.29,95.69 C137.294655,91.4772029 139.728738,87.6449828 143.54,85.85 C147.83,83.85 153.11,81.57 155.09,81.57 C157.07,81.57 162.35,83.83 166.64,85.85 C170.447364,87.6478741 172.877172,91.4794935 172.88,95.69 L172.88,95.69 Z" id="Shape" stroke="#20293A" opacity="0.9"></path>
        </g>
      </g>
    </g>
  </g>
</svg>
