<svg width="326px" height="213px" viewBox="0 0 326 213" version="1.1" xmlns="http://www.w3.org/2000/svg" xmlns:xlink="http://www.w3.org/1999/xlink">
  <g id="Home-/-About" stroke="none" stroke-width="1" fill="none" fill-rule="evenodd">
    <g id="1.0-Home-Desktop" transform="translate(-931.000000, -1358.000000)">
      <g id="How-It-Works" transform="translate(164.000000, 1152.000000)">
        <g id="5_subsections_2.0_r7-01" transform="translate(767.000000, 206.000000)">
          <g id="Group" opacity="0.05" transform="translate(0.000000, 3.000000)" fill-rule="nonzero" fill="#324C85">
            <path d="M165.93,61 C166.51,62 166.43,63.13 165.76,63.52 C165.09,63.91 164.07,63.41 163.49,62.41 C162.91,61.41 162.99,60.28 163.66,59.89 C164.33,59.5 165.36,60.05 165.93,61 Z" id="Shape"></path>
            <path d="M187,101.23 C187.090096,101.284888 187.176911,101.34499 187.26,101.41 L186.76,101.41 L187,101.23 Z" id="Shape"></path>
            <path d="M160.56,85.57 C160.798042,83.9138114 160.921668,82.2431872 160.93,80.57 C161.92,82.11 161.06,84.19 160.56,85.57 Z" id="Shape"></path>
            <path d="M168.28,99.6 C167.35,97.39 166.47,95.68 165.72,94.15 C166.73,94.78 167.81,95.87 168.28,99.6 Z" id="Shape"></path>
            <path d="M170.35,86.29 C169.97,89.1 167.7,91.04 166.99,91.74 C166.476343,92.2892628 165.891088,92.7668845 165.25,93.16 C164.69598,92.0417815 164.260282,90.8687497 163.95,89.66 C163.67,88.54 162.3,88.35 161.3,88.04 L161.3,88.04 L161.12,87.97 C160.53,87.76 160.12,87.46 160.3,86.81 C160.343549,86.9438246 160.40404,87.071528 160.48,87.19 C160.21,86.39 163.67,86.93 167.15,86.99 C168.234162,86.8454069 169.304487,86.6112734 170.35,86.29 Z" id="Shape"></path>
            <path d="M311.06,119.23 C311.215868,118.685742 311.413109,118.154193 311.65,117.64 C311.837602,117.100957 312.223896,116.653857 312.73,116.39 C313.73,116.01 314.73,116.93 315.16,117.86 C315.59,118.79 316,119.86 316.94,120.34 C318.199478,120.754306 319.565168,120.126001 320.07,118.9 C320.516795,117.696249 320.640904,116.396555 320.43,115.13 C320.05,110.37 319.99,105.47 319.16,100.77 C318.7,98.18 317.66,95.69 317.34,93.07 C316.98,90.07 317.78,86.96 316.69,84.07 C315.69,81.41 313.17,79.66 310.85,78 C307.605248,75.8394698 304.682887,73.2302191 302.17,70.25 C293.17,58.82 299.99,40.02 313.26,35.25 C315.86,34.31 324.19,33.01 322.18,28.33 C321.403706,26.9538997 320.228786,25.845221 318.81,25.15 C308.01,18.46 297.09,11.74 285.2,7.15 C273.04,2.43 260.4,1.15 247.45,0.91 C231.26,0.6 215.11,2.91 199.34,6.49 C169.69,13.15 141.52,24.65 112.26,32.65 C96.68,36.91 70.85,43.85 61.26,25.65 C59.6018169,22.3890422 58.4999887,18.8740072 58,15.25 C57.29,10.66 59.49,5.02 53.44,3.66 C50.0699404,2.7856915 46.5465013,2.6797491 43.13,3.35 C36.94,4.79 34.75,9.6 31.87,14.65 C28.570471,20.3996435 24.6793559,25.7888882 20.26,30.73 C16.8,34.61 9.86,37.05 8.5,42.47 C7.66,45.8 9.34,49.21 11.08,52.17 C13.31,55.95 16.15,61.17 13.91,65.56 C10.69,71.92 0.53,70.24 0.79,79.18 C0.94,84.31 3.99,88.1 5.59,92.67 C6.39807079,95.1453844 7.01324303,97.6796265 7.43,100.25 C8.34,105.15 10.74,109.67 11.43,114.61 C12.12,119.55 11.29,124.61 11.7,129.61 C12.32,137.06 15.7,142.61 17.7,149.61 C19.21,154.94 15.5,158.76 14.18,163.61 C13.01,167.85 14.72,177.54 20.47,177.48 C22.3500351,177.309049 24.1645245,176.703078 25.77,175.71 C29.45,173.81 44.57,168.56 44.57,163.32 L31.35,99.67 C30.9030146,97.5060957 32.2173711,95.3680758 34.35,94.79 L134.59,66.79 L143.91,64.19 C143.991729,64.1612769 144.075239,64.1378944 144.16,64.12 C146.254193,63.7224927 148.276903,65.0888264 148.69,67.18 L149.78,72.38 L155.56,100 L162.87,134.79 C162.914298,134.998112 162.947677,135.2084 162.97,135.42 C162.97,135.42 162.97,135.5 162.97,135.53 C163.019521,136.202607 162.955288,136.87875 162.78,137.53 L162.78,137.53 C164.966667,138.243333 167.146667,138.976667 169.32,139.73 C172.78,140.89 176.23,142.08 179.69,143.23 C195.85,133.78 215.15,131.06 235.04,131.35 C248.342073,131.716443 261.60972,132.888591 274.77,134.86 C276.7,135.12 276.93,119.09 277.77,117.39 C277.61,117.7 285.66,130.91 286.15,132.19 C288.417512,138.465151 289.849796,145.011293 290.41,151.66 C290.76,155.23 290.89,158.82 290.98,162.4 C291.1,167.4 290.13,170.66 295.12,173.52 C297.901656,175.211109 300.942095,176.434041 304.12,177.14 C312.38,178.75 319.9,173.92 322.86,166.23 C325.75,158.7 327.61,144.16 320.86,137.9 C316,133.26 308.94,126.67 311.06,119.23 Z M216.78,102.69 C216.84,102.88 216.88,103.08 216.93,103.28 C219.16,112.21 215.81,128.96 204.65,122.28 C204.019466,121.858974 203.424175,121.387423 202.87,120.87 C201.992939,120.046434 201.183654,119.153546 200.45,118.2 L200.45,118.2 C197.27,114.15 194.63,108.79 190.98,104.72 C190.85,104.56 190.7,104.43 190.57,104.28 C189.892348,103.542807 189.160289,102.857547 188.38,102.23 C188.166667,102.05 187.966667,101.893333 187.78,101.76 C187.62,101.65 187.49,101.54 187.33,101.44 L187.33,101.44 C187.246952,101.374935 187.160134,101.31483 187.07,101.26 L186.82,101.42 C185.7,102.11 184.42,102.93 183.07,103.73 L182.95,103.8 C181.288141,104.813758 179.553383,105.702863 177.76,106.46 L177.76,106.46 C174.3,107.86 171.24,108.03 170.21,104.83 C170.21,104.83 170.21,104.83 170.21,104.83 C169.72,103.27 169.21,101.89 168.74,100.66 C168.61,100.32 168.48,99.99 168.34,99.66 C168.34,99.66 168.34,99.66 168.34,99.66 C167.41,97.45 166.53,95.74 165.78,94.21 L165.78,94.21 C165.61,93.88 165.46,93.55 165.31,93.21 C164.75598,92.0917815 164.320282,90.9187497 164.01,89.71 C163.73,88.59 162.36,88.4 161.36,88.09 L161.36,88.09 L161.18,88.02 C160.59,87.81 160.18,87.51 160.36,86.86 C160.467177,86.4546049 160.553953,86.0440892 160.62,85.63 L160.62,85.63 C160.858073,83.9738148 160.9817,82.3031884 160.99,80.63 L160.99,80.63 C160.99,78.73 156.23,77.89 154.84,75.63 C154.820531,74.8532984 154.960054,74.080816 155.25,73.36 C155.79,71.76 158.48,68.41 159.94,63.11 C160.115431,62.458554 160.189631,61.7840028 160.16,61.11 C159.991906,59.2574493 159.486959,57.4511607 158.67,55.78 L158.67,55.78 C157.25,52.35 155.25,48.21 154.88,42.28 C154.88,42.11 154.88,41.94 154.88,41.77 L154.88,41.77 L155.08,38.01 L155.08,37.85 L155.9,33.35 C158.9,43.77 167.03,49.73 175.29,53.16 C181.198304,55.671592 187.478103,57.1984716 193.88,57.68 C202.43,57.19 187.52,75.34 199.42,88.55 C199.962946,89.1531346 200.540593,89.7241033 201.15,90.26 C202.38,91.35 209.66,96.45 213.94,102.63 L216.85,102.75 C215.77,98.75 212.01,95.34 209.73,91.16 C210.73,91.39 211.73,91.6 212.67,91.79 C213.61,91.98 214.67,92.17 215.52,92.31 C215.68,92.31 215.6,92.31 215.64,92.31 L215.64,92.24 L215.73,92.12 C215.73,92.03 215.83,91.95 215.88,91.86 C216.075551,91.4967876 216.242716,91.1189942 216.38,90.73 L216.49,90.73 C216.562615,90.7101983 216.63059,90.6762111 216.69,90.63 L216.69,90.63 L216.69,90.63 L216.79,90.63 L217.26,90.63 L220.99,90.79 C223.94,90.91 226.86,91.01 229.8,91.11 C230.51,93.96 231.22,96.79 231.87,99.65 L232.2,101.15 C232.37,101.92 232.54,102.7 232.69,103.47 L216.78,102.69 Z" id="Shape"></path>
            <path d="M232.73,103.38 L216.78,102.69 C215.7,98.69 211.94,95.28 209.66,91.1 C210.66,91.33 211.66,91.54 212.6,91.73 C213.54,91.92 214.6,92.11 215.45,92.25 C215.61,92.25 215.53,92.25 215.57,92.25 L215.57,92.18 L215.66,92.06 C215.66,91.97 215.76,91.89 215.81,91.8 C216.005551,91.4367876 216.172716,91.0589942 216.31,90.67 L216.42,90.67 C216.492615,90.6501983 216.56059,90.6162111 216.62,90.57 L216.62,90.57 L216.62,90.57 L216.72,90.57 L217.19,90.57 L220.92,90.73 C223.87,90.85 226.79,90.95 229.73,91.05 C230.44,93.9 231.15,96.73 231.8,99.59 L232.14,101.09 C232.41,101.83 232.58,102.61 232.73,103.38 Z" id="Shape"></path>
            <path d="M232.73,103.38 L216.78,102.69 C215.7,98.69 211.94,95.28 209.66,91.1 C210.66,91.33 211.66,91.54 212.6,91.73 C213.54,91.92 214.6,92.11 215.45,92.25 C215.61,92.25 215.53,92.25 215.57,92.25 L215.57,92.18 L215.66,92.06 C215.66,91.97 215.76,91.89 215.81,91.8 C216.005551,91.4367876 216.172716,91.0589942 216.31,90.67 L216.42,90.67 C216.492615,90.6501983 216.56059,90.6162111 216.62,90.57 L216.62,90.57 L216.62,90.57 L216.72,90.57 L217.19,90.57 L220.92,90.73 C223.87,90.85 226.79,90.95 229.73,91.05 C230.44,93.9 231.15,96.73 231.8,99.59 L232.14,101.09 C232.41,101.83 232.58,102.61 232.73,103.38 Z" id="Shape"></path>
          </g>
          <path d="M127.79,131.18 C128.63,133.08 129.79,134.26 130.89,134.07 C132.29,133.82 133.07,131.37 132.81,128.34" id="Shape" stroke="#20293A" opacity="0.9"></path>
          <path d="M89.36,137.77 L75.32,132.36" id="Shape" stroke="#20293A" opacity="0.9"></path>
          <path d="M70.62,128.79 C69.3791209,127.15059 68.6800392,125.165198 68.62,123.11 C68.56,117.85 69.27,118.3 70.31,116.55 C71.35,114.8 75.11,109.08 79.08,110.83 C82.32,112.27 86.08,119 87.27,121.39 C87.3483101,121.542288 87.3311514,121.726177 87.2260184,121.861348 C87.1208854,121.996519 86.9468786,122.058414 86.78,122.02 L73.58,118.41" id="Shape" stroke="#20293A" opacity="0.9"></path>
          <path d="M170.35,89 C169.97,91.81 167.7,94 166.99,94.74 C166.476343,95.2892628 165.891088,95.7668845 165.25,96.16 C165.011994,96.3059823 164.739171,96.3854119 164.46,96.39 C164.46,96.39 164.46,96.39 164.46,96.39 C164.09,96.39 163.79,96.05 163.64,95.39 C163.467677,94.8921864 163.426352,94.358405 163.52,93.84 C163.614951,93.4673532 163.763143,93.1103459 163.96,92.78 L163.96,92.78 C162.999999,92.376779 162.10655,91.8305947 161.31,91.16 L161.31,91.16 C161.11,90.99 160.91,90.81 160.72,90.62 L160.66,90.55 L160.54,90.39 C160.545927,90.3602927 160.545927,90.3297073 160.54,90.3 C160.27,89.5 163.73,90.04 167.21,90.1 C168.293474,89.8483356 169.34634,89.4794973 170.35,89 L170.35,89 Z" id="Shape" fill="#37E6C8" fill-rule="nonzero"></path>
          <path d="M170.79,88.16 C169.24,93.5 165.79,95.86 165.25,96.16 C165.011994,96.3059823 164.739171,96.3854119 164.46,96.39 C164.46,96.39 164.46,96.39 164.46,96.39 C164.09,96.39 163.79,96.05 163.64,95.39 C163.467677,94.8921864 163.426352,94.358405 163.52,93.84 C163.614951,93.4673532 163.763143,93.1103459 163.96,92.78 L163.96,92.78 C162.999999,92.376779 162.10655,91.8305947 161.31,91.16 L161.31,91.16 C161.11,90.99 160.91,90.81 160.72,90.62 L160.66,90.55 L160.54,90.39 C160.545927,90.3602927 160.545927,90.3297073 160.54,90.3 C160.27,89.5 162.3,90 165.78,90.05 C167.494851,89.5459858 169.169537,88.9142181 170.79,88.16 L170.79,88.16 Z" id="Shape" stroke="#20293A" opacity="0.9"></path>
          <g id="Group" opacity="0.9" transform="translate(31.000000, 36.000000)" stroke="#20293A">
            <path d="M127.62,22.75 C127.62,22.75 127.23,21.75 127.22,21.75 C127.22,19.51 129.56,15.26 140.22,23.27" id="Shape"></path>
            <path d="M126.05,26.09 C127.24,27.86 130.55,28.76 130.55,28.76 C130.97,28.76 128.55,24.13 133.71,25.22 C136.71,25.85 137.33,27.78 140.19,26.42" id="Shape"></path>
            <path d="M83.35,75 C70.6,78.46 59.47,84.91 58.85,83.83 C54.85,76.96 48.45,72.64 48.85,72.48 C52.77,71.06 63.05,67.54 68.44,67.54 C75.2,67.54 85.98,73.32 86.77,73.54 C87.56,73.76 98,76.86 98.86,77 L98.86,77 C99.17,77.08 99.86,78.49 100.6,80.43 C102.09,84.43 103.6,90.7 101.88,92.27 C99.26,94.6 77.48,103.57 73.12,104.62 C70.7011239,105.155142 68.1812853,105.009766 65.84,104.2" id="Shape"></path>
            <path d="M54.08,163.66 C43.08,159.91 32.08,156.12 22.51,152.73 C19.6933735,151.716519 17.6063729,149.311355 17,146.38 L15.15,137.48 L0.35,66.67 C-0.0969854138,64.5060957 1.21737108,62.3680758 3.35,61.79 L103.59,33.79 L112.91,31.19 C112.991729,31.1612769 113.075239,31.1378944 113.16,31.12 C115.254193,30.7224927 117.276903,32.0888264 117.69,34.18 L118.78,39.38 L124.56,67 L131.87,101.79 C131.914352,101.998102 131.947732,102.208392 131.97,102.42 C131.97,102.42 131.97,102.5 131.97,102.53 C132.026326,103.200931 131.972275,103.876557 131.81,104.53 C131.313624,106.476658 129.875943,108.04572 127.98,108.71 L35.77,141.14 L24.77,145.01" id="Shape"></path>
            <path d="M69.35,168.84 L54.08,163.66" id="Shape"></path>
            <path d="M113.9,176.24 C123.1,164.91 125.66,156.08 126.72,148.37 C127.93,139.66 127.22,132.37 132,124.37 L132,124.37 C134.5,120.2 138.5,115.86 145,111.05" id="Shape"></path>
            <path d="M171.39,93.82 C171.575567,91.8188258 171.291357,89.8019643 170.56,87.93 C170.238773,86.9929654 169.864843,86.0748347 169.44,85.18 L169.44,85.18 C166.98431,80.2403713 163.802316,75.696591 160,71.7 C159.87,71.54 159.72,71.41 159.59,71.26 C158.8,70.44 158.05,69.75 157.4,69.21 C157.186667,69.03 156.986667,68.8733333 156.8,68.74 C156.65887,68.6213787 156.50838,68.5143634 156.35,68.42 L156.35,68.42 C156.266897,68.3550086 156.180084,68.294907 156.09,68.24" id="Shape"></path>
            <path d="M161.27,63.67 C158.96,65.55 157,67.1 155.27,68.37 C154.05,69.29 152.97,70.06 152,70.7 L151.88,70.77 C150.283573,71.8961152 148.536387,72.7915902 146.69,73.43 L146.69,73.43 C146.41,73.52 146.13,73.6 145.86,73.66 C142.49,74.49 140.42,73.41 139.14,71.8 C139.14,71.8 139.14,71.8 139.14,71.8 C138.2396,70.5638046 137.646572,69.1309377 137.41,67.62 C137.35,67.34 137.32,67.07 137.29,66.83 C137.29,66.77 137.29,66.71 137.29,66.65 C137.29,66.59 137.29,66.65 137.29,66.65 C136.82,62.92 135.75,61.83 134.73,61.2 L134.73,61.2 C134.28,60.92 133.85,60.73 133.47,60.45 C133.47,60.45 133.47,60.45 133.47,60.45 C133.285035,60.3060036 133.120231,60.1378361 132.98,59.95 C132.852853,59.7793742 132.745498,59.5948581 132.66,59.4 C132.453501,58.9098887 132.411398,58.3660545 132.54,57.85 C132.617084,57.471643 132.766484,57.1117246 132.98,56.79 L132.98,56.79 C131.892529,56.5066557 130.907743,55.9206391 130.14,55.1 C129.990974,54.9545597 129.853867,54.7973879 129.73,54.63 L129.67,54.56 L129.55,54.4 C129.556202,54.3703205 129.556202,54.3396795 129.55,54.31 C129.47404,54.191528 129.413549,54.0638246 129.37,53.93 C129.348208,53.5043646 129.437825,53.0804068 129.63,52.7 L129.63,52.7 C130.13,51.33 130.99,49.24 130,47.7 L130,47.7 C129.47183,46.9788294 128.707476,46.4657214 127.84,46.25 C124.84,45.3 123.93,43.95 123.84,42.69 C123.820531,41.9132984 123.960054,41.140816 124.25,40.42 C124.79,38.82 127.48,35.47 128.94,30.17 C129.115587,29.5185835 129.189791,28.8440081 129.16,28.17 C128.992128,26.3174086 128.487169,24.5110806 127.67,22.84 C127.67,22.84 127.67,22.84 127.67,22.84 C126.25,19.41 124.25,15.27 123.88,9.34 C123.88,9.17 123.88,9 123.88,8.83 L123.88,8.83 C123.852545,7.57342873 123.919399,6.31656831 124.08,5.07 L124.08,4.91 C124.269547,3.39593499 124.543304,1.89360676 124.9,0.41" id="Shape"></path>
          </g>
          <path d="M165.76,66.57 C165.09,66.96 164.07,66.46 163.49,65.46 C162.91,64.46 162.99,63.33 163.66,62.94 C164.33,62.55 165.36,63.05 165.93,64.05 C166.5,65.05 166.43,66.18 165.76,66.57 Z" id="Shape" fill="#20293A" fill-rule="nonzero" opacity="0.9"></path>
          <path d="M96.86,140.17 C96.8,143.12 95.86,145.33 94.41,145.59 C92.41,145.94 90.19,142.59 89.41,138.15 C88.63,133.71 89.6,129.8 91.59,129.45 C93.58,129.1 95.8,132.45 96.59,136.9 C96.7852246,137.978745 96.8756457,139.073844 96.86,140.17 L96.86,140.17 Z" id="Shape" stroke="#20293A" opacity="0.9"></path>
          <path d="M73.83,137.24 C72.56,137.46 71.12,135.33 70.61,132.46 C70.3672621,131.241976 70.3672621,129.988024 70.61,128.77 C70.86,127.71 71.34,126.98 71.99,126.87 C73.26,126.65 74.7,128.79 75.21,131.65 C75.21,131.88 75.29,132.12 75.31,132.34 C75.61,134.91 75,137 73.83,137.24 Z" id="Shape" stroke="#20293A" opacity="0.9"></path>
          <path d="M129.87,113 C129.02,113.65 129.16,116.71 129.16,116.71 C122.27,116.78 109.28,124.44 109.28,124.44 C104.74588,123.679248 100.12159,123.621908 95.57,124.27 C95.3572826,124.313147 95.1801378,124.459623 95.0977995,124.660448 C95.0154611,124.861273 95.0387955,125.089945 95.16,125.27 C98.07,129.18 106.62,127.43 107.52,127.18 C108.42,126.93 107.99,125.53 107.99,125.53" id="Shape" stroke="#20293A" opacity="0.9"></path>
          <path d="M129.16,116.69 C129.16,116.69 130.5,120.74 131.62,116.41" id="Shape" stroke="#20293A" opacity="0.9"></path>
          <polygon id="Shape" stroke="#20293A" fill="#37E6C8" fill-rule="nonzero" points="154.76 45.55 154.76 45.17 154.76 45.24"></polygon>
          <path d="M276.2,134.33 C275.803717,135.529219 275.346455,136.70742 274.83,137.86 C272.044678,143.999872 268.016563,149.495542 263,154 C249.1,166.55 223,170.64 201.22,160.72 C186.22,153.9 176.8,147.67 167.81,155.09 L167.73,155.16 C165.950015,156.699933 164.373938,158.460838 163.04,160.4 C163.04,160.07 163.42,153.02 169.41,142.78 C170.136667,141.526667 170.953333,140.23 171.86,138.89 C176.38,132.21 181.51,125.43 201.61,123.97 L202.92,123.89 C204.173333,123.81 205.48,123.753333 206.84,123.72 C210.334994,123.655951 213.578806,121.890332 215.53,118.99 C218.4,114.65 216.87,109.87 213.92,105.6 C209.64,99.41 202.36,94.32 201.13,93.23 C200.520624,92.6940701 199.942979,92.1231033 199.4,91.52 C187.5,78.31 202.4,60.16 193.86,60.65 C187.458103,60.1684716 181.178304,58.641592 175.27,56.13 C167.02,52.7 158.88,46.74 155.88,36.32 L155.06,40.82 L155.06,40.98 L154.86,44.74 L154.86,44.74 L154.86,45.19 C154.18,44.25 146.57,33.19 158.97,20.97 L158.97,20.97 C162.180551,17.1054721 165.801838,13.6015415 169.77,10.52 C186.32,-2.86 210.93,-5.32907052e-15 222.54,5.74 C237.28,13 247.37,23.3 250,39.1 C254.5,65.81 246.13,73.36 247.11,84.57 C247.351731,87.0348598 247.965355,89.4488975 248.93,91.73 C249.02,91.96 249.12,92.19 249.22,92.4 C249.551805,93.1545564 249.939552,93.8832534 250.38,94.58 L250.38,94.58 C255.04,101.84 263.07,100.46 270.63,108.03 C272.031792,109.44131 273.285025,110.992773 274.37,112.66 C276.065224,115.235375 277.165218,118.156166 277.59,121.21 L277.59,121.21 C278.152915,125.631924 277.676981,130.124193 276.2,134.33 L276.2,134.33 Z" id="Shape" fill="#37E6C8" fill-rule="nonzero"></path>
          <path d="M276.2,134.33 C275.803717,135.529219 275.346455,136.70742 274.83,137.86 C272.044678,143.999872 268.016563,149.495542 263,154 C249.1,166.55 223,170.64 201.22,160.72 C186.22,153.9 176.8,147.67 167.81,155.09 L167.73,155.16 C165.950015,156.699933 164.373938,158.460838 163.04,160.4 C163.04,160.07 163.42,153.02 169.41,142.78 C170.136667,141.526667 170.953333,140.23 171.86,138.89 C176.38,132.21 181.51,125.43 201.61,123.97 L202.92,123.89 C204.173333,123.81 205.48,123.753333 206.84,123.72 C210.334994,123.655951 213.578806,121.890332 215.53,118.99 C218.4,114.65 216.87,109.87 213.92,105.6 C209.64,99.41 202.36,94.32 201.13,93.23 C200.520624,92.6940701 199.942979,92.1231033 199.4,91.52 C187.5,78.31 202.4,60.16 193.86,60.65 C187.458103,60.1684716 181.178304,58.641592 175.27,56.13 C167.02,52.7 158.88,46.74 155.88,36.32 L155.06,40.82 L155.06,40.98 L154.86,44.74 L154.86,44.74 L154.86,45.19 C154.18,44.25 146.57,33.19 158.97,20.97 L158.97,20.97 C162.180551,17.1054721 165.801838,13.6015415 169.77,10.52 C186.32,-2.86 210.93,-5.32907052e-15 222.54,5.74 C237.28,13 247.37,23.3 250,39.1 C254.5,65.81 246.13,73.36 247.11,84.57 C247.351731,87.0348598 247.965355,89.4488975 248.93,91.73 C249.02,91.96 249.12,92.19 249.22,92.4 C249.551805,93.1545564 249.939552,93.8832534 250.38,94.58 L250.38,94.58 C255.04,101.84 263.07,100.46 270.63,108.03 C272.031792,109.44131 273.285025,110.992773 274.37,112.66 C276.065224,115.235375 277.165218,118.156166 277.59,121.21 L277.59,121.21 C278.152915,125.631924 277.676981,130.124193 276.2,134.33 L276.2,134.33 Z" id="Shape" stroke="#20293A" opacity="0.9"></path>
        </g>
      </g>
    </g>
  </g>
</svg>
