<svg width="322px" height="214px" viewBox="0 0 322 214" version="1.1" xmlns="http://www.w3.org/2000/svg" xmlns:xlink="http://www.w3.org/1999/xlink">
	<defs>
		<polygon id="path-1" points="321.497 0.969359849 321.497 209.029997 -8.73985275e-05 209.029997 -8.73985275e-05 0.969359849 321.497 0.969359849"></polygon>
	</defs>
	<g id="Page-1" stroke="none" stroke-width="1" fill="none" fill-rule="evenodd">
		<g transform="translate(0.000000, -1.000000)">
			<g id="Group-14" transform="translate(0.000000, 0.031000)">
				<g id="Group-3">
					<mask id="mask-2" fill="white">
						<use xlink:href="#path-1"></use>
					</mask>
					<g id="Clip-2"></g>
					<path d="M321.3594,153.3495 C323.7454,110.0705 294.8354,70.8545 264.2184,43.2815 C234.0134,16.0785 193.4554,0.3765 152.7424,0.9865 C88.2914,1.9505 7.8294,51.3135 0.2284,120.7305 C-0.5126,127.4925 0.3424,135.3785 5.8864,139.3195 C9.5744,141.9405 15.0194,142.5735 17.0414,146.6205 C19.1084,150.7615 16.1724,155.8915 17.5334,160.3145 C18.8704,164.6605 23.9174,166.7895 28.4624,166.8905 C33.0064,166.9905 37.4864,165.6545 42.0334,165.6825 C62.1054,165.8065 71.2634,188.1485 86.5274,197.4335 C92.7614,201.2255 99.2364,204.6425 105.9504,207.5285 C107.9194,208.3745 110.0034,209.1945 112.1374,209.0015 C116.6214,208.5965 119.5444,203.8905 120.2114,199.4365 C121.3194,192.0415 128.9024,181.6125 122.4374,177.3235 C116.7214,173.5305 129.1144,154.9515 129.1134,154.9405 C128.5004,147.3785 127.6704,148.5135 128.5754,135.8295 C128.4144,131.9305 128.0564,129.1035 127.6624,127.5475 C126.9444,124.7245 124.4654,117.9605 123.7204,116.2275 C123.0314,114.6165 123.4784,112.0445 126.3474,112.3155 C126.4514,112.3155 126.5524,112.3335 126.6834,112.3525 C126.9724,112.2965 127.2894,112.2775 127.6524,112.3155 C127.8674,112.3245 128.0814,112.3615 128.3144,112.4175 C131.6584,113.1905 135.3664,116.1355 137.3234,121.0355 C137.6304,121.7865 137.9464,122.6995 138.2764,123.7065 C140.5744,138.1585 141.3034,137.1275 143.7984,140.9215 C151.7324,130.2315 167.9594,127.5665 179.4654,122.8375 C181.4804,117.7885 182.2744,112.9375 179.9094,109.4575 C179.8844,109.2795 179.8584,109.1035 179.8364,108.9235 C179.6394,107.5165 179.4914,106.1105 179.4254,104.7405 C179.4254,104.7405 177.5814,101.5735 177.2734,97.6605 C176.9944,94.1285 176.9944,89.4325 179.3884,87.9145 C179.5934,87.7845 179.8164,87.6815 180.0594,87.6165 C180.1154,87.5885 180.1714,87.5695 180.2364,87.5515 C180.7024,87.4305 181.0934,87.4115 181.4204,87.4855 C184.4284,86.9825 184.1394,91.1195 185.2394,93.9985 C186.3664,96.9985 189.0414,102.0105 189.4314,102.9985 C189.5584,103.3365 193.5994,114.6285 194.1454,116.2495 C194.1654,116.3055 208.2534,118.0745 210.2064,119.2155 C215.9464,122.5685 216.4474,130.4875 222.3534,133.6295 C228.5494,136.9275 237.7564,133.3905 244.4504,132.3305 C245.8534,132.1085 247.3744,131.9045 248.6254,132.5775 C251.0194,133.8665 250.9274,137.3415 252.4624,139.5865 C254.3974,142.4185 258.4374,142.7115 261.8444,142.3165 C274.7194,140.8235 285.0364,139.0215 296.2254,147.3375 C303.5084,152.7505 308.0654,162.7635 316.5084,166.3395 C317.1444,166.6085 317.8424,166.8425 318.5144,166.6825 C319.9274,166.3465 320.3794,164.5905 320.5394,163.1465 C320.8834,160.0325 321.1724,156.7335 321.3594,153.3495" id="Fill-1" fill-opacity="0.05" fill="#324C85" mask="url(#mask-2)"></path>
				</g>
				<path d="M262.0919,93.2518 C257.9129,93.2518 255.0929,89.9678 252.3649,86.7928 C249.7979,83.8038 247.3729,80.9808 244.0209,80.9808 C240.8639,80.9808 238.7439,83.1008 238.7439,86.2558 C238.7429,86.2938 238.7059,88.9468 240.4129,90.6908 C241.4259,91.7268 242.8649,92.2518 244.6919,92.2518 C247.2679,92.2518 249.2339,90.0948 251.0259,87.8868 L251.8029,88.5168 C249.8589,90.9128 247.7079,93.2518 244.6919,93.2518 C242.5819,93.2518 240.9009,92.6238 239.6919,91.3838 C237.6909,89.3318 237.7409,86.3688 237.7439,86.2438 C237.7439,82.5608 240.3249,79.9808 244.0209,79.9808 C247.8329,79.9808 250.5229,83.1118 253.1229,86.1408 C255.7039,89.1458 258.3719,92.2518 262.0919,92.2518 C265.6959,92.2518 267.5799,89.3668 267.5799,86.5168 C267.5799,85.0438 267.0919,83.6868 266.2039,82.6938 C265.2019,81.5728 263.7399,80.9808 261.9759,80.9808 C258.5319,80.9808 256.1639,83.2238 254.1169,85.6478 L253.3539,85.0018 C255.5559,82.3938 258.1239,79.9808 261.9759,79.9808 C264.0329,79.9808 265.7529,80.6888 266.9499,82.0278 C268.0009,83.2038 268.5799,84.7978 268.5799,86.5168 C268.5799,89.8638 266.3519,93.2518 262.0919,93.2518" id="Fill-4" fill="#373E4C"></path>
				<path d="M199.0655,140.558 C200.2245,140.329 201.3405,143.871 202.6485,148.714 C203.7155,152.639 204.3475,154.774 202.9015,157.654 C201.4555,160.523 197.4385,169.969 195.1665,173.951 C192.8935,177.922 183.2875,189.892 179.8445,198.156 C186.1375,201.343 186.7395,203.965 187.0485,204.963 C188.0395,210.017 180.2975,213.459 178.6685,208.869 C178.1395,207.365 178.7655,200.738 179.8445,198.156 C175.4715,195.975 173.0785,192.696 163.7605,190.856 C144.6985,187.093 139.9015,192.788 137.2275,197.689 C134.8295,202.073 136.7455,206.602 136.6415,213.993" id="Stroke-6" stroke="#20293A"></path>
				<path d="M198.8848,142.4476 C199.0328,148.5766 199.6958,151.8296 197.7898,154.9406" id="Stroke-8" stroke="#20293A"></path>
				<path d="M194.2364,120.2406 C195.2234,120.0796 196.0844,120.5276 196.6694,121.6526 C196.6694,121.6526 199.8444,128.6066 198.8844,142.4476" id="Stroke-10" stroke="#20293A"></path>
				<path d="M138.5899,173.5302 C137.2579,171.0892 135.9909,169.0492 135.0409,167.7442 C132.6099,164.4002 128.0259,157.4222 128.4999,147.3782 C128.5569,146.2042 128.6029,145.0772 128.6209,143.9962 C128.6399,143.5212 128.6499,143.0552 128.6499,142.5982 C128.7709,135.1272 128.2579,129.9002 127.6619,127.5522 C126.9439,124.7292 124.4659,117.9652 123.7209,116.2322 C123.0309,114.6202 123.4789,112.0492 126.3479,112.3192 C126.4499,112.3192 126.5529,112.3382 126.6549,112.3562 C126.6649,112.3472 126.6739,112.3472 126.6839,112.3562 C126.8049,112.3652 126.9159,112.3942 127.0369,112.4222 C130.5229,113.1952 134.3699,116.1392 136.4199,121.0402 C136.8109,121.9712 137.2209,123.1452 137.6579,124.4492 C138.3759,126.6482 139.1679,129.2292 139.9879,131.7262 C141.2359,135.5362 142.5499,139.1612 143.7989,140.9222 C146.3519,144.4902 148.8579,148.6642 154.5689,148.4402 C160.2789,148.2172 168.9729,142.0772 171.6279,137.4562 C174.2449,132.8902 178.9419,123.1642 181.8199,119.4002 C181.9319,119.2512 182.0629,118.9902 182.0709,118.8032 C182.1279,118.2072 181.9869,117.1552 181.7649,115.7942 C181.4659,113.9032 180.9909,111.4622 180.6469,108.9282 C180.4499,107.5212 180.2919,106.1142 180.2269,104.7442 C180.2269,104.7442 178.3079,101.5772 177.9819,97.6642 C177.7019,94.1332 177.7019,89.4372 180.1899,87.9192 C180.4499,87.7602 180.7489,87.6392 181.0749,87.5552 C181.1959,87.5272 181.3079,87.4992 181.4199,87.4902 C184.4289,86.9872 184.1399,91.1232 185.2389,94.0022 C186.3659,97.0022 189.0409,102.0152 189.4319,103.0022 C189.8049,103.9992 192.7579,113.2322 193.7919,114.8722 C193.9419,115.1142 194.0529,115.5802 194.1469,116.2512 C194.1549,116.3252 194.1649,116.4092 194.1739,116.4842 C194.2579,117.4342 194.2859,118.7202 194.2389,120.2382 C194.0899,125.4652 191.4259,133.4872 190.1309,142.8692" id="Stroke-12" stroke="#20293A"></path>
			</g>
			<path d="M150.4893,94.3497 L152.7803,99.0537" id="Stroke-15" stroke="#20293A"></path>
			<g id="Group-65" transform="translate(34.000000, 10.031000)">
				<g id="Group-20" transform="translate(51.000000, 73.000000)">
					<path d="M7.4874,3.6161 C7.4874,5.4431 6.0074,6.9231 4.1794,6.9231 C2.3534,6.9231 0.8734,5.4431 0.8734,3.6161 C0.8734,1.7891 2.3534,0.3091 4.1794,0.3091 C6.0074,0.3091 7.4874,1.7891 7.4874,3.6161" id="Fill-16" fill="#FFFFFF"></path>
					<path d="M7.4874,3.6161 C7.4874,5.4431 6.0074,6.9231 4.1794,6.9231 C2.3534,6.9231 0.8734,5.4431 0.8734,3.6161 C0.8734,1.7891 2.3534,0.3091 4.1794,0.3091 C6.0074,0.3091 7.4874,1.7891 7.4874,3.6161 Z" id="Stroke-18" stroke="#20293A"></path>
				</g>
				<g id="Group-25" transform="translate(176.000000, 73.000000)">
					<path d="M7.5831,3.6161 C7.5831,5.4431 6.1031,6.9231 4.2751,6.9231 C2.4491,6.9231 0.9691,5.4431 0.9691,3.6161 C0.9691,1.7891 2.4491,0.3091 4.2751,0.3091 C6.1031,0.3091 7.5831,1.7891 7.5831,3.6161" id="Fill-21" fill="#FFFFFF"></path>
					<path d="M7.5831,3.6161 C7.5831,5.4431 6.1031,6.9231 4.2751,6.9231 C2.4491,6.9231 0.9691,5.4431 0.9691,3.6161 C0.9691,1.7891 2.4491,0.3091 4.2751,0.3091 C6.1031,0.3091 7.5831,1.7891 7.5831,3.6161 Z" id="Stroke-23" stroke="#20293A"></path>
				</g>
				<g id="Group-30" transform="translate(148.000000, 23.000000)">
					<path d="M6.9757,3.3685 C6.9757,5.1955 5.4957,6.6765 3.6687,6.6765 C1.8417,6.6765 0.3617,5.1955 0.3617,3.3685 C0.3617,1.5425 1.8417,0.0615 3.6687,0.0615 C5.4957,0.0615 6.9757,1.5425 6.9757,3.3685" id="Fill-26" fill="#FFFFFF"></path>
					<path d="M6.9757,3.3685 C6.9757,5.1955 5.4957,6.6765 3.6687,6.6765 C1.8417,6.6765 0.3617,5.1955 0.3617,3.3685 C0.3617,1.5425 1.8417,0.0615 3.6687,0.0615 C5.4957,0.0615 6.9757,1.5425 6.9757,3.3685 Z" id="Stroke-28" stroke="#20293A"></path>
				</g>
				<g id="Group-35" transform="translate(84.000000, 23.000000)">
					<path d="M7.5723,3.3685 C7.5723,5.1955 6.0923,6.6765 4.2643,6.6765 C2.4383,6.6765 0.9583,5.1955 0.9583,3.3685 C0.9583,1.5425 2.4383,0.0615 4.2643,0.0615 C6.0923,0.0615 7.5723,1.5425 7.5723,3.3685" id="Fill-31" fill="#FFFFFF"></path>
					<path d="M7.5723,3.3685 C7.5723,5.1955 6.0923,6.6765 4.2643,6.6765 C2.4383,6.6765 0.9583,5.1955 0.9583,3.3685 C0.9583,1.5425 2.4383,0.0615 4.2643,0.0615 C6.0923,0.0615 7.5723,1.5425 7.5723,3.3685 Z" id="Stroke-33" stroke="#20293A"></path>
				</g>
				<path d="M146.6466,98.9281 C146.4596,99.4491 146.2636,99.9711 146.0496,100.4741 C145.3326,102.1891 144.4576,103.8101 143.4316,105.3381 C143.4226,105.3561 143.4046,105.3751 143.3946,105.3941 C138.1126,113.3691 129.0466,118.6051 118.7796,118.6051 C116.3476,118.6051 114.0096,118.3071 111.7546,117.7571 C111.6056,117.7291 111.4656,117.6921 111.3266,117.6551 C108.9886,117.0581 106.7706,116.1731 104.7026,115.0361 C104.3486,114.8501 104.0026,114.6551 103.6586,114.4491 C103.2206,113.1451 102.8106,111.9711 102.4196,111.0401 C100.3706,106.1391 96.5226,103.1951 93.0376,102.4221 C92.9176,102.3941 92.8046,102.3661 92.6836,102.3561 C92.6736,102.3471 92.6656,102.3471 92.6556,102.3561 C92.5526,102.3381 92.4516,102.3191 92.3476,102.3191 C90.3356,98.3321 89.1996,93.8031 89.1996,89.0241 C89.1996,77.3411 95.9816,67.2231 105.8296,62.4251 C109.7426,60.5151 114.1306,59.4441 118.7796,59.4441 C131.0786,59.4441 141.6246,66.9531 146.0596,77.6201 C146.1056,77.7231 146.1526,77.8161 146.1896,77.9191 C143.7026,79.4371 143.7026,84.1331 143.9816,87.6641 C144.3076,91.5771 146.2266,94.7441 146.2266,94.7441 C146.2926,96.1141 146.4506,97.5211 146.6466,98.9281" id="Fill-36" fill="#37E6C8"></path>
				<path d="M146.6466,98.9281 C146.4596,99.4491 146.2636,99.9711 146.0496,100.4741 C145.3326,102.1891 144.4576,103.8101 143.4316,105.3381 C143.4226,105.3561 143.4046,105.3751 143.3946,105.3941 C138.1126,113.3691 129.0466,118.6051 118.7796,118.6051 C116.3476,118.6051 114.0096,118.3071 111.7546,117.7571 C111.6056,117.7291 111.4656,117.6921 111.3266,117.6551 C108.9886,117.0581 106.7706,116.1731 104.7026,115.0361 C104.3486,114.8501 104.0026,114.6551 103.6586,114.4491 C103.2206,113.1451 102.8106,111.9711 102.4196,111.0401 C100.3706,106.1391 96.5226,103.1951 93.0376,102.4221 C92.9176,102.3941 92.8046,102.3661 92.6836,102.3561 C92.6736,102.3471 92.6656,102.3471 92.6556,102.3561 C92.5526,102.3381 92.4516,102.3191 92.3476,102.3191 C90.3356,98.3321 89.1996,93.8031 89.1996,89.0241 C89.1996,77.3411 95.9816,67.2231 105.8296,62.4251 C109.7426,60.5151 114.1306,59.4441 118.7796,59.4441 C131.0786,59.4441 141.6246,66.9531 146.0596,77.6201 C146.1056,77.7231 146.1526,77.8161 146.1896,77.9191 C143.7026,79.4371 143.7026,84.1331 143.9816,87.6641 C144.3076,91.5771 146.2266,94.7441 146.2266,94.7441 C146.2926,96.1141 146.4506,97.5211 146.6466,98.9281 Z" id="Stroke-38" stroke="#20293A"></path>
				<g id="Group-46" transform="translate(0.000000, 68.000000)" fill="#000000">
					<path d="M8.8682,2.204 L3.0032,2.204 L2.9012,6.526 C3.2132,6.405 3.5312,6.317 3.8552,6.263 C4.1802,6.208 4.5052,6.181 4.8292,6.181 C5.5062,6.181 6.1212,6.296 6.6762,6.526 C7.2302,6.756 7.7082,7.078 8.1062,7.49 C8.5062,7.903 8.8172,8.39 9.0402,8.951 C9.2642,9.513 9.3752,10.125 9.3752,10.787 C9.3752,11.477 9.2532,12.11 9.0102,12.685 C8.7662,13.26 8.4282,13.754 7.9952,14.166 C7.5622,14.579 7.0522,14.9 6.4632,15.13 C5.8752,15.36 5.2352,15.475 4.5462,15.475 C3.6392,15.475 2.8202,15.259 2.0902,14.826 C1.3592,14.393 0.7982,13.757 0.4052,12.918 L1.8672,12.289 C2.1372,12.858 2.5142,13.308 2.9992,13.639 C3.4842,13.971 4.0442,14.136 4.6782,14.136 C5.1372,14.136 5.5602,14.052 5.9522,13.882 C6.3432,13.713 6.6832,13.487 6.9732,13.203 C7.2642,12.918 7.4922,12.58 7.6612,12.188 C7.8302,11.796 7.9142,11.376 7.9142,10.93 C7.9142,10.43 7.8262,9.969 7.6502,9.55 C7.4742,9.131 7.2302,8.768 6.9202,8.464 C6.6082,8.16 6.2362,7.927 5.8042,7.764 C5.3702,7.602 4.8972,7.52 4.3832,7.52 C3.8692,7.52 3.3582,7.592 2.8502,7.734 C2.3442,7.876 1.8592,8.068 1.4002,8.312 L1.5422,0.865 L8.8682,0.865 L8.8682,2.204 Z" id="Fill-40"></path>
					<path d="M16.3565,1.9603 C15.5715,1.9603 14.9525,2.1703 14.4995,2.5893 C14.0455,3.0083 13.7045,3.5293 13.4745,4.1513 C13.2445,4.7743 13.0995,5.4373 13.0385,6.1403 C12.9775,6.8443 12.9475,7.4803 12.9475,8.0483 C12.9475,8.6163 12.9775,9.2523 13.0385,9.9563 C13.0995,10.6593 13.2445,11.3223 13.4745,11.9443 C13.7045,12.5663 14.0455,13.0873 14.4995,13.5063 C14.9525,13.9263 15.5715,14.1363 16.3565,14.1363 C17.1405,14.1363 17.7595,13.9263 18.2125,13.5063 C18.6665,13.0873 19.0075,12.5663 19.2385,11.9443 C19.4675,11.3223 19.6135,10.6593 19.6735,9.9563 C19.7355,9.2523 19.7655,8.6163 19.7655,8.0483 C19.7655,7.4803 19.7355,6.8443 19.6735,6.1403 C19.6135,5.4373 19.4675,4.7743 19.2385,4.1513 C19.0075,3.5293 18.6665,3.0083 18.2125,2.5893 C17.7595,2.1703 17.1405,1.9603 16.3565,1.9603 M16.3565,0.6213 C17.3835,0.6213 18.2155,0.8573 18.8525,1.3313 C19.4885,1.8053 19.9815,2.4063 20.3345,3.1373 C20.6855,3.8683 20.9215,4.6693 21.0435,5.5423 C21.1665,6.4143 21.2265,7.2503 21.2265,8.0483 C21.2265,8.8463 21.1665,9.6813 21.0435,10.5543 C20.9215,11.4273 20.6855,12.2283 20.3345,12.9593 C19.9815,13.6893 19.4885,14.2923 18.8525,14.7653 C18.2155,15.2383 17.3835,15.4753 16.3565,15.4753 C15.3285,15.4753 14.4965,15.2383 13.8605,14.7653 C13.2245,14.2923 12.7305,13.6893 12.3785,12.9593 C12.0275,12.2283 11.7905,11.4273 11.6695,10.5543 C11.5465,9.6813 11.4865,8.8463 11.4865,8.0483 C11.4865,7.2503 11.5465,6.4143 11.6695,5.5423 C11.7905,4.6693 12.0275,3.8683 12.3785,3.1373 C12.7305,2.4063 13.2245,1.8053 13.8605,1.3313 C14.4965,0.8573 15.3285,0.6213 16.3565,0.6213" id="Fill-42"></path>
					<path d="M27.6397,1.9603 C26.8547,1.9603 26.2357,2.1703 25.7827,2.5893 C25.3287,3.0083 24.9877,3.5293 24.7577,4.1513 C24.5277,4.7743 24.3827,5.4373 24.3217,6.1403 C24.2607,6.8443 24.2307,7.4803 24.2307,8.0483 C24.2307,8.6163 24.2607,9.2523 24.3217,9.9563 C24.3827,10.6593 24.5277,11.3223 24.7577,11.9443 C24.9877,12.5663 25.3287,13.0873 25.7827,13.5063 C26.2357,13.9263 26.8547,14.1363 27.6397,14.1363 C28.4237,14.1363 29.0427,13.9263 29.4957,13.5063 C29.9497,13.0873 30.2907,12.5663 30.5217,11.9443 C30.7507,11.3223 30.8967,10.6593 30.9567,9.9563 C31.0187,9.2523 31.0487,8.6163 31.0487,8.0483 C31.0487,7.4803 31.0187,6.8443 30.9567,6.1403 C30.8967,5.4373 30.7507,4.7743 30.5217,4.1513 C30.2907,3.5293 29.9497,3.0083 29.4957,2.5893 C29.0427,2.1703 28.4237,1.9603 27.6397,1.9603 M27.6397,0.6213 C28.6667,0.6213 29.4987,0.8573 30.1357,1.3313 C30.7717,1.8053 31.2647,2.4063 31.6177,3.1373 C31.9687,3.8683 32.2047,4.6693 32.3267,5.5423 C32.4497,6.4143 32.5097,7.2503 32.5097,8.0483 C32.5097,8.8463 32.4497,9.6813 32.3267,10.5543 C32.2047,11.4273 31.9687,12.2283 31.6177,12.9593 C31.2647,13.6893 30.7717,14.2923 30.1357,14.7653 C29.4987,15.2383 28.6667,15.4753 27.6397,15.4753 C26.6117,15.4753 25.7797,15.2383 25.1437,14.7653 C24.5077,14.2923 24.0137,13.6893 23.6617,12.9593 C23.3107,12.2283 23.0737,11.4273 22.9527,10.5543 C22.8297,9.6813 22.7697,8.8463 22.7697,8.0483 C22.7697,7.2503 22.8297,6.4143 22.9527,5.5423 C23.0737,4.6693 23.3107,3.8683 23.6617,3.1373 C24.0137,2.4063 24.5077,1.8053 25.1437,1.3313 C25.7797,0.8573 26.6117,0.6213 27.6397,0.6213" id="Fill-44"></path>
				</g>
				<g id="Group-53" transform="translate(41.000000, 0.000000)" fill="#000000">
					<path d="M7.5938,4.2665 C7.5938,3.9015 7.5298,3.5635 7.4018,3.2515 C7.2728,2.9405 7.0928,2.6735 6.8638,2.4505 C6.6328,2.2265 6.3628,2.0515 6.0518,1.9225 C5.7398,1.7945 5.4028,1.7295 5.0368,1.7295 C4.6718,1.7295 4.3328,1.7945 4.0228,1.9225 C3.7108,2.0515 3.4408,2.2265 3.2108,2.4505 C2.9808,2.6735 2.8008,2.9405 2.6728,3.2515 C2.5438,3.5635 2.4808,3.9015 2.4808,4.2665 C2.4808,4.6315 2.5438,4.9705 2.6728,5.2815 C2.8008,5.5925 2.9808,5.8595 3.2108,6.0825 C3.4408,6.3065 3.7108,6.4815 4.0228,6.6105 C4.3328,6.7395 4.6718,6.8035 5.0368,6.8035 C5.4028,6.8035 5.7398,6.7395 6.0518,6.6105 C6.3628,6.4815 6.6328,6.3065 6.8638,6.0825 C7.0928,5.8595 7.2728,5.5925 7.4018,5.2815 C7.5298,4.9705 7.5938,4.6315 7.5938,4.2665 L7.5938,4.2665 Z M8.1208,10.9635 C8.1208,10.5435 8.0468,10.1545 7.8988,9.7965 C7.7488,9.4375 7.5428,9.1265 7.2798,8.8625 C7.0158,8.5995 6.6908,8.3925 6.3058,8.2445 C5.9198,8.0955 5.4968,8.0205 5.0368,8.0205 C4.5638,8.0205 4.1368,8.0955 3.7588,8.2445 C3.3798,8.3925 3.0588,8.5995 2.7948,8.8625 C2.5308,9.1265 2.3238,9.4375 2.1758,9.7965 C2.0268,10.1545 1.9518,10.5435 1.9518,10.9635 C1.9518,11.3825 2.0268,11.7715 2.1758,12.1295 C2.3238,12.4885 2.5308,12.7995 2.7948,13.0635 C3.0588,13.3275 3.3798,13.5335 3.7588,13.6825 C4.1368,13.8315 4.5638,13.9055 5.0368,13.9055 C5.4968,13.9055 5.9198,13.8315 6.3058,13.6825 C6.6908,13.5335 7.0158,13.3275 7.2798,13.0635 C7.5428,12.7995 7.7488,12.4885 7.8988,12.1295 C8.0468,11.7715 8.1208,11.3825 8.1208,10.9635 L8.1208,10.9635 Z M3.1698,7.3505 C2.8588,7.2435 2.5718,7.0835 2.3078,6.8735 C2.0438,6.6645 1.8178,6.4175 1.6278,6.1335 C1.4388,5.8495 1.2888,5.5385 1.1818,5.2005 C1.0728,4.8615 1.0188,4.5105 1.0188,4.1445 C1.0188,3.5765 1.1268,3.0585 1.3438,2.5925 C1.5598,2.1255 1.8508,1.7295 2.2158,1.4055 C2.5808,1.0805 3.0078,0.8305 3.4948,0.6545 C3.9818,0.4785 4.4958,0.3905 5.0368,0.3905 C5.5778,0.3905 6.0918,0.4785 6.5788,0.6545 C7.0668,0.8305 7.4918,1.0805 7.8578,1.4055 C8.2228,1.7295 8.5138,2.1255 8.7308,2.5925 C8.9468,3.0585 9.0548,3.5765 9.0548,4.1445 C9.0548,4.5105 9.0008,4.8615 8.8928,5.2005 C8.7838,5.5385 8.6358,5.8495 8.4468,6.1335 C8.2568,6.4175 8.0308,6.6645 7.7668,6.8735 C7.5028,7.0835 7.2148,7.2435 6.9048,7.3505 L6.9048,7.3915 C7.7158,7.6085 8.3648,8.0545 8.8518,8.7305 C9.3388,9.4075 9.5818,10.2195 9.5818,11.1655 C9.5818,11.7885 9.4568,12.3495 9.2068,12.8505 C8.9568,13.3505 8.6248,13.7805 8.2128,14.1395 C7.7998,14.4975 7.3208,14.7715 6.7718,14.9605 C6.2238,15.1505 5.6458,15.2455 5.0368,15.2455 C4.4278,15.2455 3.8498,15.1505 3.3018,14.9605 C2.7538,14.7715 2.2738,14.4975 1.8618,14.1395 C1.4478,13.7805 1.1168,13.3505 0.8668,12.8505 C0.6158,12.3495 0.4908,11.7885 0.4908,11.1655 C0.4908,10.2195 0.7348,9.4075 1.2218,8.7305 C1.7088,8.0545 2.3588,7.6085 3.1698,7.3915 L3.1698,7.3505 Z" id="Fill-47"></path>
					<path d="M20.1153,1.9735 L14.2503,1.9735 L14.1483,6.2955 C14.4603,6.1745 14.7783,6.0865 15.1023,6.0325 C15.4273,5.9775 15.7523,5.9505 16.0763,5.9505 C16.7533,5.9505 17.3683,6.0655 17.9233,6.2955 C18.4773,6.5255 18.9553,6.8475 19.3533,7.2595 C19.7533,7.6725 20.0643,8.1595 20.2873,8.7205 C20.5113,9.2825 20.6223,9.8945 20.6223,10.5565 C20.6223,11.2465 20.5003,11.8795 20.2573,12.4545 C20.0133,13.0295 19.6753,13.5235 19.2423,13.9355 C18.8093,14.3485 18.2993,14.6695 17.7103,14.8995 C17.1223,15.1295 16.4823,15.2445 15.7933,15.2445 C14.8863,15.2445 14.0673,15.0285 13.3373,14.5955 C12.6063,14.1625 12.0453,13.5265 11.6523,12.6875 L13.1143,12.0585 C13.3843,12.6275 13.7613,13.0775 14.2463,13.4085 C14.7313,13.7405 15.2913,13.9055 15.9253,13.9055 C16.3843,13.9055 16.8073,13.8215 17.1993,13.6515 C17.5903,13.4825 17.9303,13.2565 18.2203,12.9725 C18.5113,12.6875 18.7393,12.3495 18.9083,11.9575 C19.0773,11.5655 19.1613,11.1455 19.1613,10.6995 C19.1613,10.1995 19.0733,9.7385 18.8973,9.3195 C18.7213,8.9005 18.4773,8.5375 18.1673,8.2335 C17.8553,7.9295 17.4833,7.6965 17.0513,7.5335 C16.6173,7.3715 16.1443,7.2895 15.6303,7.2895 C15.1163,7.2895 14.6053,7.3615 14.0973,7.5035 C13.5913,7.6455 13.1063,7.8375 12.6473,8.0815 L12.7893,0.6345 L20.1153,0.6345 L20.1153,1.9735 Z" id="Fill-49"></path>
					<path d="M27.6036,1.7299 C26.8186,1.7299 26.1996,1.9399 25.7466,2.3589 C25.2926,2.7779 24.9516,3.2989 24.7216,3.9209 C24.4916,4.5439 24.3466,5.2069 24.2856,5.9099 C24.2246,6.6139 24.1946,7.2499 24.1946,7.8179 C24.1946,8.3859 24.2246,9.0219 24.2856,9.7259 C24.3466,10.4289 24.4916,11.0919 24.7216,11.7139 C24.9516,12.3359 25.2926,12.8569 25.7466,13.2759 C26.1996,13.6959 26.8186,13.9059 27.6036,13.9059 C28.3876,13.9059 29.0066,13.6959 29.4596,13.2759 C29.9136,12.8569 30.2546,12.3359 30.4856,11.7139 C30.7146,11.0919 30.8606,10.4289 30.9206,9.7259 C30.9826,9.0219 31.0126,8.3859 31.0126,7.8179 C31.0126,7.2499 30.9826,6.6139 30.9206,5.9099 C30.8606,5.2069 30.7146,4.5439 30.4856,3.9209 C30.2546,3.2989 29.9136,2.7779 29.4596,2.3589 C29.0066,1.9399 28.3876,1.7299 27.6036,1.7299 M27.6036,0.3909 C28.6306,0.3909 29.4626,0.6269 30.0996,1.1009 C30.7356,1.5749 31.2286,2.1759 31.5816,2.9069 C31.9326,3.6379 32.1686,4.4389 32.2906,5.3119 C32.4136,6.1839 32.4736,7.0199 32.4736,7.8179 C32.4736,8.6159 32.4136,9.4509 32.2906,10.3239 C32.1686,11.1969 31.9326,11.9979 31.5816,12.7289 C31.2286,13.4589 30.7356,14.0619 30.0996,14.5349 C29.4626,15.0079 28.6306,15.2449 27.6036,15.2449 C26.5756,15.2449 25.7436,15.0079 25.1076,14.5349 C24.4716,14.0619 23.9776,13.4589 23.6256,12.7289 C23.2746,11.9979 23.0376,11.1969 22.9166,10.3239 C22.7936,9.4509 22.7336,8.6159 22.7336,7.8179 C22.7336,7.0199 22.7936,6.1839 22.9166,5.3119 C23.0376,4.4389 23.2746,3.6379 23.6256,2.9069 C23.9776,2.1759 24.4716,1.5749 25.1076,1.1009 C25.7436,0.6269 26.5756,0.3909 27.6036,0.3909" id="Fill-51"></path>
				</g>
				<g id="Group-62" transform="translate(164.000000, 0.000000)" fill="#000000">
					<polygon id="Fill-54" points="5.0577 15.0014 3.5967 15.0014 3.5967 2.4604 1.0197 4.7334 0.1067 3.6374 3.7587 0.6344 5.0577 0.6344"></polygon>
					<path d="M19.3848,15.0014 L10.2528,15.0014 L10.2528,13.3174 L15.9758,7.4934 C16.1928,7.2764 16.4088,7.0464 16.6248,6.8034 C16.8418,6.5594 17.0378,6.3024 17.2138,6.0324 C17.3898,5.7614 17.5308,5.4774 17.6398,5.1794 C17.7478,4.8824 17.8028,4.5704 17.8028,4.2464 C17.8028,3.8544 17.7318,3.5024 17.5888,3.1904 C17.4478,2.8794 17.2468,2.6164 16.9898,2.3994 C16.7338,2.1834 16.4358,2.0174 16.0978,1.9024 C15.7598,1.7874 15.4008,1.7304 15.0228,1.7304 C14.2918,1.7304 13.6688,1.9334 13.1558,2.3384 C12.6408,2.7444 12.3098,3.2924 12.1608,3.9824 L10.6178,3.8204 C10.8218,2.7514 11.3118,1.9124 12.0898,1.3034 C12.8668,0.6944 13.8118,0.3904 14.9208,0.3904 C15.5018,0.3904 16.0538,0.4684 16.5738,0.6244 C17.0948,0.7794 17.5558,1.0134 17.9538,1.3244 C18.3538,1.6354 18.6708,2.0244 18.9078,2.4904 C19.1448,2.9574 19.2638,3.5024 19.2638,4.1244 C19.2638,4.6794 19.1788,5.1864 19.0098,5.6464 C18.8408,6.1064 18.6208,6.5394 18.3508,6.9454 C18.0788,7.3514 17.7718,7.7364 17.4268,8.1024 C17.0818,8.4674 16.7268,8.8254 16.3618,9.1774 L11.8358,13.6624 L19.3848,13.6624 L19.3848,15.0014 Z" id="Fill-56"></path>
					<path d="M29.9991,1.9735 L24.1341,1.9735 L24.0321,6.2955 C24.3441,6.1745 24.6621,6.0865 24.9861,6.0325 C25.3111,5.9775 25.6361,5.9505 25.9601,5.9505 C26.6371,5.9505 27.2521,6.0655 27.8071,6.2955 C28.3611,6.5255 28.8391,6.8475 29.2371,7.2595 C29.6371,7.6725 29.9481,8.1595 30.1711,8.7205 C30.3951,9.2825 30.5061,9.8945 30.5061,10.5565 C30.5061,11.2465 30.3841,11.8795 30.1411,12.4545 C29.8971,13.0295 29.5591,13.5235 29.1261,13.9355 C28.6931,14.3485 28.1831,14.6695 27.5941,14.8995 C27.0061,15.1295 26.3661,15.2445 25.6771,15.2445 C24.7701,15.2445 23.9511,15.0285 23.2211,14.5955 C22.4901,14.1625 21.9291,13.5265 21.5361,12.6875 L22.9981,12.0585 C23.2681,12.6275 23.6451,13.0775 24.1301,13.4085 C24.6151,13.7405 25.1751,13.9055 25.8091,13.9055 C26.2681,13.9055 26.6911,13.8215 27.0831,13.6515 C27.4741,13.4825 27.8141,13.2565 28.1041,12.9725 C28.3951,12.6875 28.6231,12.3495 28.7921,11.9575 C28.9611,11.5655 29.0451,11.1455 29.0451,10.6995 C29.0451,10.1995 28.9571,9.7385 28.7811,9.3195 C28.6051,8.9005 28.3611,8.5375 28.0511,8.2335 C27.7391,7.9295 27.3671,7.6965 26.9351,7.5335 C26.5011,7.3715 26.0281,7.2895 25.5141,7.2895 C25.0001,7.2895 24.4891,7.3615 23.9811,7.5035 C23.4751,7.6455 22.9901,7.8375 22.5311,8.0815 L22.6731,0.6345 L29.9991,0.6345 L29.9991,1.9735 Z" id="Fill-58"></path>
					<path d="M37.4874,1.7299 C36.7024,1.7299 36.0834,1.9399 35.6304,2.3589 C35.1764,2.7779 34.8354,3.2989 34.6054,3.9209 C34.3754,4.5439 34.2304,5.2069 34.1694,5.9099 C34.1084,6.6139 34.0784,7.2499 34.0784,7.8179 C34.0784,8.3859 34.1084,9.0219 34.1694,9.7259 C34.2304,10.4289 34.3754,11.0919 34.6054,11.7139 C34.8354,12.3359 35.1764,12.8569 35.6304,13.2759 C36.0834,13.6959 36.7024,13.9059 37.4874,13.9059 C38.2714,13.9059 38.8904,13.6959 39.3434,13.2759 C39.7974,12.8569 40.1384,12.3359 40.3694,11.7139 C40.5984,11.0919 40.7444,10.4289 40.8044,9.7259 C40.8664,9.0219 40.8964,8.3859 40.8964,7.8179 C40.8964,7.2499 40.8664,6.6139 40.8044,5.9099 C40.7444,5.2069 40.5984,4.5439 40.3694,3.9209 C40.1384,3.2989 39.7974,2.7779 39.3434,2.3589 C38.8904,1.9399 38.2714,1.7299 37.4874,1.7299 M37.4874,0.3909 C38.5144,0.3909 39.3464,0.6269 39.9834,1.1009 C40.6194,1.5749 41.1124,2.1759 41.4654,2.9069 C41.8164,3.6379 42.0524,4.4389 42.1744,5.3119 C42.2974,6.1839 42.3574,7.0199 42.3574,7.8179 C42.3574,8.6159 42.2974,9.4509 42.1744,10.3239 C42.0524,11.1969 41.8164,11.9979 41.4654,12.7289 C41.1124,13.4589 40.6194,14.0619 39.9834,14.5349 C39.3464,15.0079 38.5144,15.2449 37.4874,15.2449 C36.4594,15.2449 35.6274,15.0079 34.9914,14.5349 C34.3554,14.0619 33.8614,13.4589 33.5094,12.7289 C33.1584,11.9979 32.9214,11.1969 32.8004,10.3239 C32.6774,9.4509 32.6174,8.6159 32.6174,7.8179 C32.6174,7.0199 32.6774,6.1839 32.8004,5.3119 C32.9214,4.4389 33.1584,3.6379 33.5094,2.9069 C33.8614,2.1759 34.3554,1.5749 34.9914,1.1009 C35.6274,0.6269 36.4594,0.3909 37.4874,0.3909" id="Fill-60"></path>
				</g>
				<path d="M101.4552,53.4633 L116.4892,84.3183" id="Stroke-63" stroke="#20293A"></path>
			</g>
		</g>
	</g>
</svg>
