<svg width="322px" height="214px" viewBox="0 0 322 214" version="1.1" xmlns="http://www.w3.org/2000/svg" xmlns:xlink="http://www.w3.org/1999/xlink">
  <g id="Home-/-About" stroke="none" stroke-width="1" fill="none" fill-rule="evenodd">
    <g id="1.0-Home-Desktop" transform="translate(-929.000000, -2265.000000)">
      <g id="How-It-Works" transform="translate(164.000000, 1152.000000)">
        <g id="5_subsections_2.0_r7-04" transform="translate(765.000000, 1113.000000)">
          <g id="Group" opacity="0.05" fill-rule="nonzero" fill="#4C6394">
            <path d="M57,73.26 L56.89,73.26 L57,73.26 Z" id="Shape"></path>
            <polygon id="Shape" points="57 73.26 57.07 73.26 57.07 73.26"></polygon>
            <path d="M317.62,1 C280.79,-0.41 258.46,4.67 222.32,1 C200.43,2.7 189,3.7 167,2.47 C150.57,1.83 107.73,7.92 98.33,9.8 C81.55,12.66 64.47,11.54 47.71,9.13 C34.93,7.29 4.22,-3.7 4.71,19.13 C4.86,26.07 13.09,31.98 14.71,38.73 C16.53,46.4 12.93,57.25 13.02,65.13 C13.07,70.13 18.38,71.75 16.36,76.27 C14.34,80.79 10.87,84.52 8.86,89.16 C4.19205191,99.8796076 1.28791573,111.283408 0.26,122.93 C0.06,125.22 -0.04,127.65 1.05,129.67 C5.97,138.79 19.78,131.9 35.29,128.07 C37.29,127.57 54.68,121.07 55.64,119.68 C58.98,110.52 56.96,96.68 57.14,73.24 L57.07,73.24 L56.96,73.24 L56.82,73.29 L56.59,73.37 L56.4,73.44 L56.34,73.44 L56.4,73.44 L56.59,73.37 L56.82,73.29 L56.96,73.24 L57.07,73.24 L57.17,73.24 C45.55,69.24 71.17,66.71 93.74,61.7 C106.58,55.55 113.74,50.21 124.38,58.62 C139.8,66.54 172,29.1 197,38.64 C223.8,48.91 248.4,55.48 276.75,47.24 C282.63,45.53 288.49,43.32 294.61,43.32 C302.35,43.32 310.34,50.01 316.93,49.49 C316.55,43.49 313.55,37.65 312.01,31.87 C311.53,30.08 311.08,28.16 311.65,26.4 C313.29,21.4 319.38,20.35 320.95,14.84 C321.64,12.21 321.83,1.11 317.62,1 Z" id="Shape"></path>
            <path d="M56.73,73.35 L56.5,73.43 L56.73,73.35 Z" id="Shape"></path>
            <path d="M56.32,73.5 L56.26,73.5 L56.32,73.5 Z" id="Shape"></path>
          </g>
          <path d="M240.29,147.64 C240.61695,147.546761 240.951637,147.483171 241.29,147.45 C243.18,147.24 246.93,149.23 249.17,152.87 C251.94,157.38 254.47,156.36 256.62,159.44 C258.02,161.44 259.29,167.94 259.82,169.53 C260.35,171.12 260.3,172.64 260.02,180.16 C259.9,183.1 259.64,185.67 259.39,187.91 C259.34,188.3 259.3,188.68 259.26,189.05 C259.26,189.05 259.26,201.8 262.11,203.99 C264.96,206.18 267.59,204.34 266.61,199.99 C264.31,189.84 238.36,202.99 238.61,213.8" id="Shape" stroke="#20293A" opacity="0.9"></path>
          <path d="M226.59,157.12 L223,163.18 C222.23,165.95 223.21,172.66 224.59,175.8 C227.28,181.92 225.73,180.6 226.94,185.96 C227.365104,188.075699 228.215642,190.082968 229.44,191.86 C230.27,193.13 231.35,194.58 232.8,196.61" id="Shape" stroke="#20293A" opacity="0.9"></path>
          <path d="M206,143.55 C206.245049,152.76832 198.971975,160.440491 189.753714,160.687771 C180.535453,160.935051 172.861522,153.663834 172.612011,144.445633 C172.362501,135.227432 179.63186,127.551742 188.85,127.3 C198.072314,127.053669 205.749323,134.327804 206,143.55 L206,143.55 Z" id="Shape" stroke="#20293A" opacity="0.9"></path>
          <path d="M189.29,144 L195.34,131.9" id="Shape" stroke="#20293A" opacity="0.9"></path>
          <path d="M262.85,50.4 C270.245962,49.3196048 277.559608,47.7359283 284.74,45.66" id="Shape" stroke="#20293A" opacity="0.9"></path>
          <path d="M313.43,142 C266.43,90 190.25,67.1 82.66,67.1 C82.66,67.1 108.32,54.1 114.42,54.1 C120.52,54.1 122.13,62.1 135.95,58.9 C144.79,56.9 158.26,47.28 171.58,41.57 C179.13,38.33 186.64,36.36 193.23,37.7 C208.77,40.88 224.32,55.87 262.85,50.43" id="Shape" stroke="#20293A" opacity="0.9"></path>
          <path d="M23.24,131.35 C56.88,120.25 103.61,102.28 113.62,91.44 C125.49,78.58 70.9,75.57 57.09,73.22 L57.58,89.92" id="Shape" stroke="#20293A" opacity="0.9"></path>
          <path d="M79.36,205 C82.78,198.78 89.11,188.91 89.11,188.91 C92.59,187.25 101.11,175.13 102.76,158.27 C103.09,154.89 104.33,151.17 103.99,147.16 C103.99,147.16 96.13,159.82 89.73,159.5 C83.33,159.18 83,152.8 83,152.8" id="Shape" stroke="#20293A" opacity="0.9"></path>
          <path d="M213.75,176.1 C196.486701,167.777148 177.574811,163.43705 158.41,163.4 C141.85307,163.153569 125.401504,166.072559 109.94,172" id="Shape" stroke="#20293A" opacity="0.9"></path>
          <path d="M87.87,143.2 C77.09,147.29 84.41,143.6 73.51,150.63 C67.29,154.63 71.89,157.07 65.88,160.91 C62.46,163.1 64.11,165.91 64.06,169.68 C64.06,172.91 63.88,177.24 63.47,182.46 C63.3289012,184.218836 62.6557287,185.893047 61.54,187.26 C56.91,192.94 45.31,205.68 47.27,193.62 C48.54,185.78 71.52,198.13 73.27,213.82" id="Shape" stroke="#20293A" opacity="0.9"></path>
          <path d="M244.83,167.05 C241.92,173.47 236.32,173.59 233.24,172.26 C230.66,171.15 228.72,165.53 228.16,163.72 L226.59,157.13 C218.49,130.21 192.21,111.28 161.32,112.13 C140.927891,112.540791 121.814644,122.148873 109.32,138.27 C106.76159,141.60632 104.550147,145.19489 102.72,148.98 L102.6,149.2 C102.6,149.2 102.6,149.2 102.6,149.2 C102.6,149.2 102.6,149.2 102.6,149.2 C101.71,150.91 96.82,160.06 94.73,161.2 C91.33,163.06 81.14,164.65 81.35,155.55 C81.41,152.55 84.69,147.69 85.79,145.48 C86.11,144.85 86.43,144.21 86.79,143.59 C88.278453,140.750024 89.9140077,137.989608 91.69,135.32 C106.58,112.88 131.1,96.71 160.93,95.9 C197.55,94.9 229.29,116.52 241.34,147.43 C242.60659,150.688366 243.649019,154.029484 244.46,157.43 C244.46,157.43 245.79,165 244.83,167.05 Z" id="Shape" fill="#37E6C8" fill-rule="nonzero"></path>
          <path d="M244.83,167.05 C241.92,173.47 236.32,173.59 233.24,172.26 C230.66,171.15 228.72,165.53 228.16,163.72 L226.59,157.13 C218.49,130.21 192.21,111.28 161.32,112.13 C140.927891,112.540791 121.814644,122.148873 109.32,138.27 C106.76159,141.60632 104.550147,145.19489 102.72,148.98 L102.6,149.2 C102.6,149.2 102.6,149.2 102.6,149.2 C102.6,149.2 102.6,149.2 102.6,149.2 C101.71,150.91 96.82,160.06 94.73,161.2 C91.33,163.06 81.14,164.65 81.35,155.55 C81.41,152.55 84.69,147.69 85.79,145.48 C86.11,144.85 86.43,144.21 86.79,143.59 C88.278453,140.750024 89.9140077,137.989608 91.69,135.32 C106.58,112.88 131.1,96.71 160.93,95.9 C197.55,94.9 229.29,116.52 241.34,147.43 C242.60659,150.688366 243.649019,154.029484 244.46,157.43 C244.46,157.43 245.79,165 244.83,167.05 Z" id="Shape" stroke="#20293A" opacity="0.9"></path>
          <path d="M158.94,140 C159.09093,145.97199 156.040376,151.569757 150.94,154.68 C148.450715,156.219882 145.596215,157.068984 142.67,157.14 C133.452595,157.374131 125.789563,150.093858 125.551507,140.876553 C125.313451,131.659248 132.590461,123.993118 141.807664,123.751137 C151.024866,123.509156 158.694095,130.782901 158.94,140 Z" id="Shape" stroke="#20293A" opacity="0.9"></path>
          <path d="M142.25,140.46 L132.43,131.16" id="Shape" stroke="#20293A" opacity="0.9"></path>
        </g>
      </g>
    </g>
  </g>
</svg>
