<svg width="311px" height="213px" viewBox="0 0 311 213" version="1.1" xmlns="http://www.w3.org/2000/svg" xmlns:xlink="http://www.w3.org/1999/xlink">\
  <g id="Home-/-About" stroke="none" stroke-width="1" fill="none" fill-rule="evenodd">
    <g id="1.0-Home-Desktop" transform="translate(-935.000000, -1971.000000)">
      <g id="How-It-Works" transform="translate(164.000000, 1152.000000)">
        <g id="5_subsections_2.0_r7-03" transform="translate(771.000000, 819.000000)">
          <g id="Group" opacity="0.05" fill-rule="nonzero" fill="#324C85">
            <path d="M127.51,90 L127.51,99.37 C125.954653,96.9958153 124.247776,94.7244327 122.4,92.57 L122.84,91.75 C124.550868,91.7172522 126.198941,91.0996659 127.51,90 Z" id="Shape"></path>
            <path d="M158.59,180.58 C150.75,174.38 143.28,168.71 138.59,159.29 L132.51,159.29 C129.88179,159.279009 127.755475,157.148228 127.75,154.52 L127.75,146 C127.23,145.45 117.19,134.89 114.08,132.77 C110.97,130.65 105.48,124.9 110.15,118.35 C114.82,111.8 121.95,118.64 124.86,119.81 C125.76,120.17 126.46,120.81 127.38,121.17 C128.05,117.92 127.76,114.34 127.77,110.95 C125.85,114.19 120.77,113.68 117.83,111.28 C114.89,108.88 113.28,105.28 110.71,102.53 C104.95,106.64 98.21,105.62 94.4,99.48 C91.79,95.26 90.98,90.19 89.16,85.57 C85.23,75.57 76.88,77.36 69.78,71.39 C66.21,68.39 62.78,64.83 58.35,63.47 C53.92,62.11 49.01,63.18 44.35,62.47 C25.64,59.44 32,37.53 18.31,31 C10.37,27.22 0.77,38.1 0.68,46.89 C0.44,71.77 2.07,97.35 11.86,120.53 C21.55,143.46 35.23,169.69 55.78,184.61 C64.14,190.68 74.01,195.09 80.38,203.22 C83.46,207.16 85.85,211.32 91.25,212.13 C94.51,212.62 97.83,212 101.05,211.32 C117.95,207.73 152.37,199.48 160.61,182.15 L158.59,180.58 Z" id="Shape"></path>
            <path d="M186.52,37.72 L186.52,138.1 C186.514499,140.732116 184.382116,142.864499 181.75,142.87 L136.9,142.87 C134.267884,142.864499 132.135501,140.732116 132.13,138.1 L132.13,58.63 C132.362098,58.5465996 132.589148,58.4497694 132.81,58.34 L132.13,57.2 C131.813611,56.6689976 131.539434,56.1139561 131.31,55.54 C131.2,55.41 131.66,54.9 132.13,54.38 L132.71,53.74 C135.5,52.12 138.36,50.74 140.97,49.46 C143.330748,48.3859913 145.528897,46.9856387 147.5,45.3 C148.15,44.3 147.36,43.2 146.38,42.07 C150.665542,38.8258373 155.111129,35.7986998 159.7,33 L181.7,33 C184.332232,32.977766 186.487052,35.08788 186.52,37.72 Z" id="Shape"></path>
            <path d="M305.8,34.1 L305.47,34.27 C303.960266,35.1944736 302.589847,36.3291936 301.4,37.64 C293.19,45.87 278.22,59.88 287.35,72.53 C289.57,75.61 292.87,77.7 296.03,79.79 C299.19,81.88 302.41,84.15 304.34,87.42 C307.44,92.68 305.09,97.87 301.08,101.74 C297.4,105.29 292.86,103.37 288.53,104.6 C284.2,105.83 282.87,108.04 279.53,110.81 C277.662202,112.179243 275.580775,113.230094 273.37,113.92 C269.89,115.23 222.2,136.3 221.24,131.55 C219.946799,125.297399 219.26028,118.934548 219.19,112.55 C219.19,104.69 216.45,96.06 216.19,93.87 C216.19,93.87 212.37,78.07 212.36,76.07 C212.35,74.07 211.06,67.76 206.69,62.23 C202.32,56.7 199.41,50.72 199.25,46.35 C199.13,42.82 193.63,42.41 191.07,48.12 L191.07,30.86 C191.059042,28.2356768 188.934323,26.1109577 186.31,26.1 C182.2,26.1 177.4,26.34 173.72,25.6 C178.22,24.6 185.86,26.09 189.72,24.38 C192.56,23.12 193,19.19 196.05,18.2 C200.22,16.84 203.37,21.13 207.57,18.52 C209.71,17.19 211.19,15.05 212.96,13.25 C216.96,9.13 222.56,6.83 228.12,5.25 C251.59,-1.38 278.78,-0.13 302.34,5.46 C298.34,4.51 302.61,19.46 304.51,21.05 C306.96,23.05 313,28.77 309.17,32.2 C308.133391,32.9761471 307.000639,33.6147908 305.8,34.1 Z" id="Shape"></path>
          </g>
          <path d="M186.52,37.72 L186.52,138.1 C186.514499,140.732116 184.382116,142.864499 181.75,142.87 L136.9,142.87 C134.267884,142.864499 132.135501,140.732116 132.13,138.1 L132.13,37.72 C132.162791,35.1074304 134.28723,33.0052603 136.9,33 L181.75,33 C184.36277,33.0052603 186.487209,35.1074304 186.52,37.72 Z" id="Shape" fill="#37E6C8" fill-rule="nonzero"></path>
          <path d="M186.52,37.72 L186.52,138.1 C186.514499,140.732116 184.382116,142.864499 181.75,142.87 L136.9,142.87 C134.267884,142.864499 132.135501,140.732116 132.13,138.1 L132.13,37.72 C132.162791,35.1074304 134.28723,33.0052603 136.9,33 L181.75,33 C184.36277,33.0052603 186.487209,35.1074304 186.52,37.72 Z" id="Shape" stroke="#20293A" opacity="0.9"></path>
          <path d="M127.51,76.22 L127.51,30.86 C127.520958,28.2356768 129.645677,26.1109577 132.27,26.1 L186.39,26.1 C189.014323,26.1109577 191.139042,28.2356768 191.15,30.86 L191.15,48.12" id="Shape" stroke="#20293A" opacity="0.9"></path>
          <path d="M127.51,121.94 L127.51,110.58" id="Shape" stroke="#20293A" opacity="0.9"></path>
          <path d="M127.51,130.78 L127.51,154.16 C127.515475,156.788228 129.64179,158.919009 132.27,158.93 L186.39,158.93 C189.01821,158.919009 191.144525,156.788228 191.15,154.16 L191.15,127.08 L191.15,127.08" id="Shape" stroke="#20293A" opacity="0.9"></path>
          <path d="M127.51,99.34 L127.51,89.97" id="Shape" stroke="#20293A" opacity="0.9"></path>
          <polyline id="Shape" stroke="#20293A" opacity="0.9" points="191.15 101.41 191.15 101.15 191.15 83.28 191.15 66.13"></polyline>
          <path d="M127.52,47.22 C127.52,47.22 113.31,43.75 112.29,49.22 C111.09,55.66 117.29,61.36 127.52,64.57" id="Shape" stroke="#20293A" opacity="0.9"></path>
          <path d="M188.67,199.71 C181.81,188.86 169.37,185.54 161.46,181.91 C160.380674,181.425318 159.329059,180.881149 158.31,180.28 C149.813039,175.125895 142.89478,167.737195 138.31,158.92" id="Shape" stroke="#20293A" opacity="0.9"></path>
          <path d="M127.51,145.66 C126.99,145.11 116.95,134.55 113.84,132.43 C110.73,130.31 105.24,124.56 109.91,118.01 C114.58,111.46 121.71,118.3 124.62,119.47 C125.827079,119.960908 126.84153,120.83144 127.51,121.95 C128.409778,123.492966 128.866527,125.25422 128.83,127.04 C128.793047,128.394236 128.331277,129.702584 127.51,130.78 C125.76,133.05 122.19,134.35 116.16,130.44" id="Shape" stroke="#20293A" opacity="0.9"></path>
          <path d="M175.13,194.92 C164.65,226.92 202.46,207.19 210.2,187.41 C218.03,167.41 229.2,165.33 224.66,160.24 C220.12,155.15 221.16,147.72 221.16,147.72 C221.501687,142.752535 221.501687,137.767465 221.16,132.8 C221.16,132.73 221.16,132.67 221.16,132.61" id="Shape" stroke="#20293A" opacity="0.9"></path>
          <path d="M191.15,127.08 L191.15,127.08 C187.956426,118.735107 187.956426,109.504893 191.15,101.16 C191.951811,99.0058305 193.030895,96.9653201 194.36,95.09 C195.24,86.26 193.48,79.6 194.25,76.52 C194.429596,75.885803 194.429596,75.214197 194.25,74.58 C193.57,72.4 192.2,70.03 191.17,66.14 C190.268211,62.5443388 189.837935,58.846655 189.89,55.14 C189.815016,52.7422661 190.251354,50.3560416 191.17,48.14 C193.72,42.43 199.22,42.84 199.35,46.37 C199.5,50.74 202.42,56.71 206.79,62.25 C211.16,67.79 212.45,74.12 212.46,76.09 C212.47,78.06 216.29,93.89 216.29,93.89 C216.51,96.07 219.29,104.71 219.29,112.57 C219.29,117.75 220.6,124.14 221.2,132.63" id="Shape" stroke="#20293A" opacity="0.9"></path>
          <path d="M127.51,76.22 L127.95,76.87 L127.95,76.87 C128.63,77.87 129.09,78.77 129.63,81.62 C130.210405,84.5897672 129.432801,87.6635022 127.51,90 C126.197583,91.0960587 124.549646,91.7100653 122.84,91.74 C122.466955,91.7607362 122.093045,91.7607362 121.72,91.74 C121.150056,91.7100241 120.584213,91.6263196 120.03,91.49 C118.511681,91.1043428 117.166605,90.2205363 116.21,88.98 C114.83406,87.0971353 113.689198,85.0558561 112.8,82.9 C110.8,78.66 111.93,75.11 115.31,71.62 C118.14,68.71 125.22,68.83 127.5,68.95" id="Shape" stroke="#20293A" opacity="0.9"></path>
          <path d="M116.21,88.94 C107.21,91.76 109.38,99.56 110.21,101.3 C110.32,101.53 110.44,101.74 110.56,101.96 C111.45,103.49 112.81,105.15 115.67,109.06 C118.95,113.54 124.3,113.91 126.43,111.78 C126.790308,111.403272 127.124421,111.002336 127.43,110.58 C128.87,108.63 129.5,106.16 128.75,102.38 C128.477988,101.314209 128.031999,100.300597 127.43,99.38 C125.874653,97.0058153 124.167776,94.7344327 122.32,92.58 L121.64,91.75" id="Shape" stroke="#20293A" opacity="0.9"></path>
          <path d="M165.66,150.46 L165.66,151 C165.654491,152.597719 164.357729,153.890009 162.76,153.89 L155.88,153.89 C154.290082,153.879044 153.005445,152.589947 153,151 L153,150.46 C153.005487,148.866175 154.296175,147.575487 155.89,147.57 L162.77,147.57 C164.363825,147.575487 165.654513,148.866175 165.66,150.46 Z" id="Shape" stroke="#20293A" opacity="0.9"></path>
          <path d="M176.66,82.17 C176.501732,90.4321493 170.531867,97.4331687 162.398499,98.894841 C154.265131,100.356513 146.231195,95.8721597 143.206107,88.1821009 C140.181019,80.4920421 143.006446,71.7358713 149.955811,67.2643521 C156.905176,62.792833 166.044969,63.8500693 171.79,69.79 L159.34,87.09 L152.09,81.85" id="Shape" stroke="#20293A" opacity="0.9"></path>
        </g>
      </g>
    </g>
  </g>
</svg>
