<svg width="323px" height="214px" viewBox="0 0 323 214" version="1.1" xmlns="http://www.w3.org/2000/svg" xmlns:xlink="http://www.w3.org/1999/xlink">
  <g id="Home-/-About" stroke="none" stroke-width="1" fill="none" fill-rule="evenodd">
    <g id="1.0-Home-Desktop" transform="translate(-935.000000, -1662.000000)">
      <g id="How-It-Works" transform="translate(164.000000, 1152.000000)">
        <g id="5_subsections_2.0_r7-02" transform="translate(771.000000, 510.000000)">
          <g id="Group" opacity="0.05" fill-rule="nonzero" fill="#324C85">
            <path d="M321.92,152.52 C324.31,109.24 295.4,70 264.78,42.45 C234.58,15.25 194,-0.45 153.31,0.16 C88.85,1.12 8.39,50.49 0.79,119.9 C0.05,126.66 0.9,134.55 6.45,138.49 C10.14,141.11 15.58,141.74 17.6,145.79 C19.62,149.84 16.73,155.06 18.09,159.48 C19.45,163.9 24.48,166 29,166.06 C33.52,166.12 38,164.82 42.57,164.85 C62.64,164.97 71.8,187.32 87.06,196.6 C93.2886456,200.417606 99.7779765,203.792592 106.48,206.7 C108.389733,207.695124 110.516761,208.20025 112.67,208.17 C117.15,207.76 120.08,203.06 120.74,198.61 C121.85,191.21 129.43,180.79 122.97,176.5 C117.25,172.71 129.65,154.13 129.65,154.12 C129.04,146.56 128.21,147.69 129.11,135.01 C129.061323,132.227927 128.756705,129.456238 128.2,126.73 C127.48,123.91 125,117.14 124.26,115.41 C123.52,113.68 124.02,111.23 126.89,111.5 C127.003198,111.492159 127.116802,111.492159 127.23,111.5 C127.561362,111.44873 127.898638,111.44873 128.23,111.5 C128.452709,111.511984 128.673737,111.545473 128.89,111.6 C132.23,112.37 135.94,115.32 137.89,120.22 C138.2,120.97 138.51,121.88 138.89,122.89 C141.19,137.34 141.89,136.31 144.41,140.1 C152.3,129.4 168.52,126.74 180,122 C182,117 182.81,112.1 180.44,108.62 C180.44,108.44 180.39,108.27 180.37,108.09 C180.17,106.68 180.03,105.28 179.96,103.91 C178.776161,101.717908 178.045014,99.310224 177.81,96.83 C177.53,93.3 177.53,88.6 179.92,87.08 C180.126778,86.9465111 180.352711,86.8453474 180.59,86.78 L180.77,86.71 C181.152152,86.5930593 181.556703,86.5690605 181.95,86.64 C184.95,86.14 184.67,90.27 185.77,93.15 C186.87,96.03 189.57,101.15 189.96,102.15 C190.09,102.49 194.13,113.78 194.67,115.4 C194.67,115.46 208.78,117.22 210.73,118.4 C216.47,121.75 216.97,129.67 222.88,132.81 C229.08,136.11 238.28,132.57 244.98,131.51 C246.360551,131.141081 247.823414,131.228783 249.15,131.76 C251.54,133.05 251.45,136.52 252.99,138.76 C254.93,141.59 258.99,141.88 262.37,141.49 C275.24,140 285.56,138.2 296.75,146.49 C304.03,151.9 308.59,161.92 317.03,165.49 C317.644429,165.810524 318.344171,165.92948 319.03,165.83 C320.44,165.49 320.89,163.74 321.03,162.29 C321.45,159.2 321.74,155.91 321.92,152.52 Z" id="Shape"></path>
          </g>
          <path d="M252,87.37 C250,89.83 248,91.92 245.28,91.92 C238.67,91.92 238.83,85.42 238.83,85.42 C238.751706,83.8643653 239.335484,82.3482684 240.436876,81.2468763 C241.538268,80.1454841 243.054365,79.5617056 244.61,79.64 C251.89,79.64 254.91,91.91 262.68,91.91 C270.45,91.91 270.92,79.64 262.56,79.64 C258.97,79.64 256.5,81.9 254.32,84.48" id="Shape" stroke="#373E4C" opacity="0.9"></path>
          <path d="M199.63,139.73 C200.79,139.5 201.91,143.04 203.21,147.89 C204.28,151.82 204.91,153.95 203.46,156.83 C202.01,159.71 198,169.14 195.72,173.13 C193.44,177.12 183.84,189.07 180.4,197.33 C186.69,200.52 187.29,203.14 187.6,204.14 C188.6,209.19 180.85,212.64 179.22,208.05 C178.69,206.55 179.32,199.92 180.4,197.34 C176.03,195.16 173.63,191.88 164.32,190.04 C145.26,186.28 140.46,191.97 137.79,196.87 C135.39,201.25 137.31,205.78 137.2,213.17" id="Shape" stroke="#20293A" opacity="0.9"></path>
          <path d="M199.45,141.62 C199.6,147.75 200.26,151 198.36,154.11" id="Shape" stroke="#20293A" opacity="0.9"></path>
          <path d="M194.8,119.41 C195.84071,119.25051 196.852028,119.837325 197.23,120.82 C197.23,120.82 200.41,127.82 199.44,141.62" id="Shape" stroke="#20293A" opacity="0.9"></path>
          <path d="M139.15,172.7 C138.08441,170.700234 136.898915,168.766708 135.6,166.91 C131.108063,161.0921 128.794276,153.885396 129.06,146.54 C129.12,145.37 129.16,144.24 129.18,143.16 C129.18,142.686667 129.18,142.22 129.18,141.76 C129.3,134.29 128.79,129.06 128.18,126.76 C127.46,123.94 124.98,117.17 124.24,115.44 C123.5,113.71 124,111.26 126.87,111.53 C126.973125,111.520723 127.076875,111.520723 127.18,111.53 L127.18,111.53 C127.298266,111.544465 127.415268,111.567865 127.53,111.6 C131.01,112.37 134.86,115.32 136.91,120.22 C137.3,121.15 137.71,122.33 138.15,123.63 C138.87,125.83 139.66,128.41 140.48,130.91 C141.73,134.72 143.04,138.34 144.29,140.11 C146.84,143.68 149.35,147.85 155.06,147.63 C160.77,147.41 169.46,141.27 172.12,136.63 C174.78,131.99 179.43,122.34 182.31,118.57 C182.442796,118.394396 182.528818,118.187943 182.56,117.97 C182.559937,116.962009 182.456056,115.956705 182.25,114.97 C181.95,113.08 181.48,110.64 181.13,108.1 C180.93,106.69 180.78,105.29 180.71,103.92 C179.480139,101.740259 178.714113,99.3298305 178.46,96.84 C178.18,93.31 178.18,88.61 180.67,87.09 C180.947339,86.9268666 181.247237,86.8055595 181.56,86.73 C181.671559,86.6987538 181.785171,86.6753632 181.9,86.66 C184.9,86.16 184.62,90.29 185.72,93.17 C186.82,96.05 189.52,101.17 189.91,102.17 C190.3,103.17 193.24,112.4 194.27,114.04 C194.468249,114.47537 194.586793,114.942772 194.62,115.42 L194.62,115.65 C194.714171,116.897673 194.737541,118.149681 194.69,119.4 C194.54,124.63 191.88,132.65 190.58,142.03" id="Shape" stroke="#20293A" opacity="0.9"></path>
          <path d="M151.05,93.49 L153.34,98.19" id="Shape" stroke="#20293A"></path>
          <circle id="Oval" stroke="#20293A" fill="#FFFFFF" fill-rule="nonzero" opacity="0.9" cx="89.74" cy="85.79" r="3.31"></circle>
          <circle id="Oval" stroke="#20293A" fill="#FFFFFF" fill-rule="nonzero" opacity="0.9" cx="214.84" cy="85.79" r="3.31"></circle>
          <circle id="Oval" stroke="#20293A" fill="#FFFFFF" fill-rule="nonzero" opacity="0.9" cx="186.23" cy="35.54" r="3.31"></circle>
          <circle id="Oval" stroke="#20293A" fill="#FFFFFF" fill-rule="nonzero" opacity="0.9" cx="122.83" cy="35.54" r="3.31"></circle>
          <path d="M181.21,108.1 C181.02,108.62 180.83,109.1 180.61,109.65 C179.896585,111.351249 179.019106,112.978939 177.99,114.51 L177.99,114.57 C171.10565,124.950695 158.44792,129.895371 146.35,126.93 L145.92,126.83 C143.611541,126.239747 141.387164,125.359404 139.3,124.21 C138.95,124.02 138.6,123.83 138.3,123.62 C137.86,122.32 137.45,121.14 137.06,120.21 C135.06,115.31 131.16,112.37 127.68,111.59 C127.565268,111.557865 127.448266,111.534465 127.33,111.52 L127.33,111.52 C127.226872,111.510777 127.123128,111.510777 127.02,111.52 C122.121781,101.854161 122.900814,90.2836889 129.050541,81.3617014 C135.200268,72.4397139 145.736222,67.5944699 156.51238,68.7326299 C167.288539,69.8707898 176.579822,76.8101537 180.73,86.82 C180.73,86.92 180.82,87.02 180.86,87.12 C178.37,88.64 178.37,93.33 178.65,96.87 C178.904113,99.3598305 179.670139,101.770259 180.9,103.95 C180.86,105.29 181,106.69 181.21,108.1 Z" id="Shape" fill="#37E6C8" fill-rule="nonzero"></path>
          <path d="M181.21,108.1 C181.02,108.62 180.83,109.1 180.61,109.65 C179.896585,111.351249 179.019106,112.978939 177.99,114.51 L177.99,114.57 C171.10565,124.950695 158.44792,129.895371 146.35,126.93 L145.92,126.83 C143.611541,126.239747 141.387164,125.359404 139.3,124.21 C138.95,124.02 138.6,123.83 138.3,123.62 C137.86,122.32 137.45,121.14 137.06,120.21 C135.06,115.31 131.16,112.37 127.68,111.59 C127.565268,111.557865 127.448266,111.534465 127.33,111.52 L127.33,111.52 C127.226872,111.510777 127.123128,111.510777 127.02,111.52 C122.121781,101.854161 122.900814,90.2836889 129.050541,81.3617014 C135.200268,72.4397139 145.736222,67.5944699 156.51238,68.7326299 C167.288539,69.8707898 176.579822,76.8101537 180.73,86.82 C180.73,86.92 180.82,87.02 180.86,87.12 C178.37,88.64 178.37,93.33 178.65,96.87 C178.904113,99.3598305 179.670139,101.770259 180.9,103.95 C180.86,105.29 181,106.69 181.21,108.1 Z" id="Shape" stroke="#20293A" opacity="0.9"></path>
          <text id="500" fill="#000000" opacity="0.9" font-family="Avenir-Book, Avenir" font-size="20.29" font-weight="normal">
            <tspan x="33.99" y="92.4">500</tspan>
          </text>
          <text id="850" fill="#000000" opacity="0.9" font-family="Avenir-Book, Avenir" font-size="20.29" font-weight="normal">
            <tspan x="74.96" y="24.17">850</tspan>
          </text>
          <text id="1250" fill="#000000" opacity="0.9" font-family="Avenir-Book, Avenir" font-size="20.29" font-weight="normal">
            <tspan x="196.56" y="24.17">1250</tspan>
          </text>
          <path d="M136.02,62.64 L151.05,93.49" id="Shape" stroke="#20293A" opacity="0.9"></path>
        </g>
      </g>
    </g>
  </g>
</svg>
