<?xml version="1.0" encoding="UTF-8"?>
<svg width="96px" height="96px" viewBox="0 0 96 96" version="1.1" xmlns="http://www.w3.org/2000/svg" xmlns:xlink="http://www.w3.org/1999/xlink">
    <!-- Generator: Sketch 45.1 (43504) - http://www.bohemiancoding.com/sketch -->
    <title>icon/home/selling</title>
    <desc>Created with Sketch.</desc>
    <defs></defs>
    <g id="Symbols" stroke="none" stroke-width="1" fill="none" fill-rule="evenodd" opacity="0.9">
        <g id="icon/home/selling" stroke="#373E4D">
            <path d="M5.94736842,31.721562 C5.94736842,31.721562 8.42105263,55.7402377 13.2088285,63.4804754 C15.4431239,67.0713073 20.2308998,71.3803056 24.6994907,71.3803056 C41.2971138,71.3803056 89.4142615,71.3803056 89.573854,71.3803056 C93.1646859,71.3803056 95.8777589,66.1935484 93.3242784,63.6400679 C83.6689304,53.9847199 83.1103565,31.721562 83.1103565,31.721562 L83.1103565,10.8149406 L65.2359932,10.8149406 L65.2359932,6.18675722 C65.2359932,3.31409168 62.9219015,1 60.1290323,1 L60.1290323,1 C57.336163,1 55.0220713,3.31409168 55.0220713,6.18675722 L55.0220713,10.7351443 L29.1680815,10.7351443 L29.1680815,6.18675722 C29.1680815,3.31409168 26.8539898,1 24.0611205,1 L24.0611205,1 C21.2682513,1 18.9541596,3.31409168 18.9541596,6.18675722 L18.9541596,10.7351443 L1,10.7351443 L1,25.6570458 L1,89.4142615 C1,92.5263158 3.47368421,95 6.42614601,95 L77.7640068,95 C80.7962649,95 83.1901528,92.5263158 83.1901528,89.4142615 L83.1901528,80.8760611" id="Shape"></path>
        </g>
    </g>
</svg>