<?xml version="1.0" encoding="UTF-8"?>
<svg width="96px" height="96px" viewBox="0 0 96 96" version="1.1" xmlns="http://www.w3.org/2000/svg" xmlns:xlink="http://www.w3.org/1999/xlink">
    <!-- Generator: Sketch 45.1 (43504) - http://www.bohemiancoding.com/sketch -->
    <title>icon/home/simplicity</title>
    <desc>Created with Sketch.</desc>
    <defs></defs>
    <g id="Symbols" stroke="none" stroke-width="1" fill="none" fill-rule="evenodd" opacity="0.9">
        <g id="icon/home/simplicity" stroke="#373E4D">
            <path d="M36.5101592,71.7007342 C36.5101592,69.2186818 35.0689675,66.4163646 32.8271137,65.2954377 C20.9773153,59.3705385 13.0507609,46.720078 14.0916216,32.308161 C15.2926147,15.6543902 28.8238034,2.20326769 45.4775742,1.08234081 C65.3339932,-0.278784689 81.8276316,15.4141916 81.8276316,34.8702796 C81.8276316,48.2413359 74.1412758,59.7708695 62.932007,65.2954377 C60.6901533,66.4163646 59.3290278,68.7382846 59.3290278,71.2203369 L55.0855189,71.2203369 L55.0855189,39.9945167 L55.0855189,33.9895513 C55.0855189,30.5467045 58.2081009,27.7443873 61.5708815,27.7443873 C64.9336622,27.7443873 67.7359794,30.5467045 67.7359794,33.9094851 C67.7359794,37.2722657 64.9336622,40.0745829 61.5708815,40.0745829 L55.0855189,39.9945167 L40.6736019,39.9945167 L34.4284378,40.0745829 C30.985591,40.0745829 28.26334,37.2722657 28.26334,33.9094851 C28.26334,30.5467045 31.0656572,27.7443873 34.4284378,27.7443873 C37.7912185,27.7443873 40.5935357,30.5467045 40.5935357,33.9094851 L40.6736019,39.9945167 L40.6736019,67.1369604 L40.6736019,70.9801383 L40.6736019,75.7841107 L58.6884981,75.7841107 C58.8486305,75.7841107 59.0888292,75.7841107 59.2489616,75.8641769 C60.9303519,76.1043755 62.2114112,77.5455672 62.2114112,79.3070237 C62.2114112,80.2678182 61.8110801,81.1485464 61.1705505,81.7890761 C60.5300209,82.4296057 59.6492926,82.8299367 58.6884981,82.8299367 L58.6884981,83.2302678 C60.6100871,83.2302678 62.2114112,84.8315919 62.2114112,86.7531808 C62.2114112,87.7139753 61.8110801,88.5947036 61.1705505,89.2352332 C60.5300209,89.8757628 59.6492926,90.2760939 58.6884981,90.2760939 L57.8077699,90.2760939 C57.7277037,92.8382124 53.3240624,95 47.8795604,95 C42.4350584,95 38.0314171,92.9182787 37.9513509,90.2760939 L37.0706226,90.2760939 C35.1490337,90.2760939 33.5477096,88.6747698 33.5477096,86.7531808 C33.5477096,85.7923864 33.9480406,84.9116581 34.5885702,84.2711284 C35.2290999,83.6305988 36.1098281,83.2302678 37.0706226,83.2302678 L37.0706226,82.8299367 C35.1490337,82.8299367 33.5477096,81.2286126 33.5477096,79.3070237 C33.5477096,78.3462292 33.9480406,77.465501 34.5885702,76.8249713 C35.0689675,76.3445741 35.7895633,75.9442431 36.5101592,75.8641769" id="Shape"></path>
        </g>
    </g>
</svg>