<?xml version="1.0" encoding="UTF-8"?>
<svg width="96px" height="96px" viewBox="0 0 96 96" version="1.1" xmlns="http://www.w3.org/2000/svg" xmlns:xlink="http://www.w3.org/1999/xlink">
    <!-- Generator: Sketch 45.1 (43504) - http://www.bohemiancoding.com/sketch -->
    <title>icon/home/transparency</title>
    <desc>Created with Sketch.</desc>
    <defs></defs>
    <g id="Symbols" stroke="none" stroke-width="1" fill="none" fill-rule="evenodd">
        <g id="icon/home/transparency" stroke="#373E4D">
            <path d="M32.3333333,22.6204953 L32.3333333,17.0859135 C32.3333333,12.637824 35.9719944,9 40.4192468,9 L86.9140865,9 C91.3613389,9 95,12.637824 95,17.0859135 L95,45.3857737 C95,49.8338632 91.3613389,53.4716872 86.9140865,53.4716872 L79.2776694,53.4716872 L79.8384937,63.8042458 L67.1479621,53.4716872 L40.4192468,53.4716872 C35.9719944,53.4716872 32.3333333,49.8338632 32.3333333,45.0534644 L32.3333333,33.5130411 C32.3333333,31.9611484 33.5914211,30.7030606 35.1433138,30.7030606 L55.5807532,30.7030606 C60.0280056,30.7030606 63.6666667,34.3417217 63.6666667,38.7889741 L63.6666667,67.0905084 C63.6666667,71.5369237 60.0280056,75.1755848 55.5807532,75.1755848 L28.8520379,75.1755848 L16.1615063,85.5081434 L16.7231676,75.1755848 L9.0859135,75.1755848 C4.63866107,75.1755848 1,71.5369237 1,67.0905084 L1,38.7889741 C1,34.3417217 4.63866107,30.7030606 9.0859135,30.7030606 L23.6037275,30.7030606" id="Stroke-7"></path>
        </g>
    </g>
</svg>