<svg width="73px" height="98px" viewBox="0 0 73 98" version="1.1" xmlns="http://www.w3.org/2000/svg" xmlns:xlink="http://www.w3.org/1999/xlink">
  <g id="Home-/-About" stroke="none" stroke-width="1" fill="none" fill-rule="evenodd">
    <g id="Why-Canvas-Copy" transform="translate(-430.000000, -817.000000)">
      <g id="buying" transform="translate(418.000000, 818.000000)">
        <path d="M74.8881356,23.4305085 C76.1084746,18.7932203 77.1661017,13.3423729 77.6542373,10.5762712 L79.3627119,10.5762712 C80.7457627,10.5762712 82.0474576,10.0067797 83.0237288,9.03050847 C84.1627119,7.89152542 84.7322034,6.26440678 84.4067797,4.47457627 C84,2.03389831 81.7220339,0.244067797 79.2,0.244067797 L17.9389831,0.244067797 C16.5559322,0.244067797 15.2542373,0.813559322 14.2779661,1.78983051 C13.3830508,2.68474576 12.8135593,3.90508475 12.8135593,5.28813559 C12.7322034,8.21694915 15.2542373,10.5762712 18.1830508,10.5762712 L19.6474576,10.5762712 C21.6,21.4779661 26.0745763,44.8271186 43.159322,47.9186441 C43.159322,47.9186441 35.7559322,48.9762712 30.3864407,56.1355932 C23.4711864,64.759322 20.9491525,78.020339 19.6474576,85.4237288 L17.9389831,85.4237288 C16.5559322,85.4237288 15.2542373,85.9932203 14.2779661,86.9694915 C13.1389831,88.1084746 12.5694915,89.7355932 12.8949153,91.5254237 C13.3016949,93.9661017 15.579661,95.7559322 18.1016949,95.7559322 L79.3627119,95.7559322 C80.7457627,95.7559322 82.0474576,95.1864407 83.0237288,94.2915254 C83.9186441,93.3966102 84.4881356,92.1762712 84.4881356,90.7932203 C84.5694915,87.8644068 82.0474576,85.5050847 79.1186441,85.5050847 L77.6542373,85.5050847 C75.7016949,74.6033898 71.2271186,51.3355932 54.2237288,48.1627119 C54.1423729,48.1627119 54.1423729,48 54.2237288,48 C61.8711864,46.6169492 70.1694915,37.3423729 73.0169492,29.9389831 C74.0745763,27.0915254 62.440678,33.7627119 49.179661,33.7627119 C41.8576271,33.7627119 31.1186441,32.7864407 31.1186441,29.6135593 C31.1186441,27.6610169 38.6033898,25.1389831 44.2983051,27.4169492 C49.9932203,29.6949153 49.2610169,32.379661 49.3423729,33.7627119 C49.4237288,35.1457627 49.3423729,51.9050847 49.3423729,51.9050847 L49.3423729,54.5898305 L49.3423729,68.2576271 C49.3423729,79.240678 69.7627119,77.7762712 69.7627119,84.2033898 C69.7627119,85.5050847 67.4847458,85.5864407 66.1016949,85.5864407 L29.2474576,85.5864407 C28.2711864,85.5864407 26.7254237,85.3423729 26.7254237,84.2847458 C26.7254237,78.2644068 44.4610169,81.7627119 48.040678,71.4305085" id="Shape" stroke="#373E4D" opacity="0.9"></path>
        <rect id="96x96-copy" x="0" y="0" width="96" height="96"></rect>
      </g>
    </g>
  </g>
</svg>
