<svg width="96px" height="96px" viewBox="0 0 96 96" version="1.1" xmlns="http://www.w3.org/2000/svg" xmlns:xlink="http://www.w3.org/1999/xlink">
  <g id="Home-/-About" stroke="none" stroke-width="1" fill="none" fill-rule="evenodd">
    <g id="1.0-Home-Desktop" transform="translate(-424.000000, -3478.000000)" stroke="#373E4D">
      <g id="Why-Canvas" transform="translate(0.000000, 2840.000000)">
        <g id="Page-1" transform="translate(418.000000, 432.000000)">
          <g id="Coverage" transform="translate(0.000000, 207.000000)">
            <path d="M32.7612814,47.9906953 L48.4245167,62.5216957 L81.1956639,35.7848901 C84.179044,33.3509769 88.6501964,35.4734275 88.6501964,39.3236137 L88.6501964,61.4227618 C88.6501964,65.7724634 83.6295771,77.0419222 68.7831964,84.5542417 C53.9377952,92.0675407 47.6585931,96 47.6585931,96 C47.6585931,96 41.7124012,92.0675407 26.8669999,84.5542417 C12.0215987,77.0419222 7,65.7724634 7,61.4227618 L7,11.2048156 C16.3879508,15.1588226 49.2805489,0 49.2805489,0 C49.2805489,0 79.263225,15.1588226 88.6501964,11.2048156 L88.6501964,25.1716574" id="Stroke-3"></path>
          </g>
        </g>
      </g>
    </g>
  </g>
</svg>
