<svg width="96px" height="96px" viewBox="0 0 96 96" version="1.1" xmlns="http://www.w3.org/2000/svg" xmlns:xlink="http://www.w3.org/1999/xlink">
  <g id="Home-/-About" stroke="none" stroke-width="1" fill="none" fill-rule="evenodd">
    <g id="Why-Canvas-Copy" transform="translate(-417.000000, -602.000000)">
      <g id="expensive" transform="translate(418.000000, 601.000000)">
        <path d="M57.5186441,93.0372881 C90.1423729,91.6542373 95.8372881,82.0542373 95.8372881,61.8779661 C95.8372881,39.5864407 63.4576271,14.1220339 48.8135593,14.1220339 C40.0271186,14.1220339 32.2169492,9.97288136 32.2169492,5.41694915 C32.2169492,-2.06779661 36.9355932,5.09152542 49.0576271,5.09152542 C60.9355932,5.09152542 65.4915254,-1.98644068 65.4915254,5.57966102 C65.4915254,10.2983051 57.6,14.1220339 48.8949153,14.1220339 L48.8949153,14.1220339 C36.4474576,14.1220339 0.325423729,38.4474576 0.325423729,60.3322034 C0.325423729,82.2169492 9.27457627,93.2813559 48.8949153,93.2813559 L48.8949153,71.3152542 C48.8949153,71.3152542 44.0949153,71.3152542 37.2610169,71.3152542 C37.2610169,77.9864407 42.6305085,83.3559322 49.3016949,83.3559322 C55.9728814,83.3559322 61.3423729,77.9864407 61.3423729,71.3152542 C61.3423729,64.6440678 56.1355932,59.1932203 49.1389831,59.1932203 C42.3864407,59.1932203 37.0983051,53.9864407 37.0983051,47.3152542 C37.0983051,40.6440678 42.4677966,35.2745763 49.1389831,35.2745763 C61.179661,35.2745763 61.179661,47.3152542 61.179661,47.3152542 C57.5186441,47.3152542 51.7423729,47.3152542 48.8135593,47.3152542 L48.7322034,27.3830508" id="Shape" stroke="#373E4D" opacity="0.9"></path>
        <rect id="96x96" x="0" y="0" width="96" height="96"></rect>
      </g>
    </g>
  </g>
</svg>
