<svg width="96px" height="96px" viewBox="0 0 96 96" version="1.1" xmlns="http://www.w3.org/2000/svg" xmlns:xlink="http://www.w3.org/1999/xlink">
  <g id="Home-/-About" stroke="none" stroke-width="1" fill="none" fill-rule="evenodd">
    <g id="1.0-Home-Desktop" transform="translate(-417.000000, -3274.000000)" stroke="#373E4D">
      <g id="Why-Canvas" transform="translate(0.000000, 2840.000000)">
        <g id="Page-1" transform="translate(418.000000, 432.000000)">
          <g id="FlexibilityIcon">
            <path d="M65.7030232,44.2885535 C87.3416218,33.5708314 101.092528,-2.42548701 94.217075,8.09084718 C87.3416218,18.6062981 67.3211926,23.6613107 52.1543881,34.9858463 C36.9875836,46.3103819 47.3007633,70.3753512 47.3007633,70.3753512 C47.3007633,70.3753512 48.3121192,71.1844359 57.2094007,68.7571819 C66.1075656,66.3308111 76.6230165,53.3881062 78.6457281,52.1753625 C80.6675565,50.9617355 91.3852786,55.2085467 87.543893,52.782176 C83.7007408,50.354922 83.4984696,44.0862823 78.0389146,43.68174 C72.5784764,43.2771976 67.9280061,46.3103819 64.0848539,47.9285512 C60.2434682,49.5458373 53.569403,45.7044517 48.3121192,42.6536018 C43.0539521,39.602752 35.5716854,31.7503909 25.8653192,26.8976494 C16.1580697,22.0440247 4.83353407,7.88857601 2.20489217,4.24769498 C-0.423749739,0.607697233 -1.03056324,5.25905082 2.20489217,13.9549445 C5.44034758,22.6499549 19.7980674,42.2658418 23.0335228,44.895367 C26.2689782,47.5240089 36.0115589,58.3565574 36.0115589,58.3565574 C34.5612128,62.6908134 31.8645584,65.5623573 31.5589434,65.8918209 C12.2424885,77.7118766 6.31656155,82.6670786 8.06898948,83.115785 C11.730186,84.0511787 26.4712494,76.0371774 26.4712494,76.0371774 C21.5831767,78.7514975 2.41157974,101.410285 30.1121304,79.8794463 C30.1121304,79.8794463 22.8312516,110.415326 37.9989394,77.8576179" id="Stroke-1"></path>
          </g>
        </g>
      </g>
    </g>
  </g>
</svg>
