<svg width="93px" height="98px" viewBox="0 0 93 98" version="1.1" xmlns="http://www.w3.org/2000/svg" xmlns:xlink="http://www.w3.org/1999/xlink">
  <g id="Home-/-About" stroke="none" stroke-width="1" fill="none" fill-rule="evenodd">
    <g id="1.0-Home-Desktop" transform="translate(-420.000000, -3672.000000)" stroke="#373E4D">
      <g id="Why-Canvas" transform="translate(0.000000, 2840.000000)">
        <g id="Page-1" transform="translate(418.000000, 432.000000)">
          <g id="GetItRight" transform="translate(0.000000, 401.000000)">
            <path d="M18.9352548,47.0807669 C18.9352548,47.0807669 29.5483393,50.2168778 32.2865664,48.3683398 C36.4993548,45.524238 42.4761522,35.0136128 44.6132842,31.8091956 C46.5583048,28.8933723 51.6889585,23.4886397 56.5216262,17.8824037 C59.1932546,14.7812997 60.5465723,13.9069796 61.596781,11.7160565 C62.4463401,9.9435091 63.1533098,6.90388069 63.7706276,4.3159274 C65.1512678,-1.47217399 68.1712582,-0.48514859 69.8106083,1.78347295 C72.2098656,5.10315701 72.9544038,10.3448084 72.2269421,15.1689377 C71.4508123,20.3234986 64.961718,28.9548479 62.3729108,33.8378914 C59.7841037,38.7217887 64.489551,39.421074 74.1540324,40.1451203 C80.3263565,40.6070414 84.2548201,40.9511342 86.983655,42.3915424 C88.5265226,43.2052406 90.4203135,44.3049714 90.9812787,44.8924052 C92.2748284,46.2474305 91.9751347,51.3260007 90.264063,54.0164134 C89.7329818,54.8514573 90.0360908,55.9588725 90.9266337,56.3909096 C92.0391718,56.930529 93.335283,57.7536194 93.6281461,60.2075217 C93.6281461,63.5451361 92.1356544,65.59347 90.7951441,66.7597993 C89.9874226,67.4616461 89.9131396,68.6382214 90.5577799,69.4920496 C90.7080536,69.6901377 90.8429585,69.9112792 90.9531023,70.1554741 C91.8419375,72.1355017 91.6429955,75.8530697 88.7954785,77.5718259 C87.6189032,78.3360021 86.2100867,78.902944 85.0497341,79.2880206 C83.9500034,79.6517514 83.5307737,85.4722982 81.4559712,87.6598061 C80.8446302,88.3044464 71.0503669,92.4036756 67.3080379,92.4036756 C48.4452652,92.4036756 39.226482,85.3450778 17.8619927,84.9873238 C-3.50249662,84.6312775 2.52382285,96 9.25455058,96 C23.5792264,96 7.67923755,83.5409388 7.67923755,58.9421483 C7.67923755,31.8390796 25.4320336,33.268388 27.1576204,44.1213983" id="Stroke-5"></path>
          </g>
        </g>
      </g>
    </g>
  </g>
</svg>
