<svg width="40px" height="24px" viewBox="0 0 40 24" version="1.1" xmlns="http://www.w3.org/2000/svg" xmlns:xlink="http://www.w3.org/1999/xlink">
  <g id="Symbols" stroke="none" stroke-width="1" fill="none" fill-rule="evenodd">
    <g id="icon/icon-slider-control">
      <rect id="WhiteBG" fill="#FFFFFF" x="0" y="0" width="40" height="24" rx="12"></rect>
      <path d="M16,9.48529412 C16,9.21727358 16.2238576,9 16.5,9 C16.7761424,9 17,9.21727358 17,9.48529412 L17,14.5147059 C17,14.7827264 16.7761424,15 16.5,15 C16.2238576,15 16,14.7827264 16,14.5147059 L16,9.48529412 Z M24,9.48529412 C24,9.21727358 24.2238576,9 24.5,9 C24.7761424,9 25,9.21727358 25,9.48529412 L25,14.5147059 C25,14.7827264 24.7761424,15 24.5,15 C24.2238576,15 24,14.7827264 24,14.5147059 L24,9.48529412 Z M20,8.50574713 C20,8.2264307 20.2238576,8 20.5,8 C20.7761424,8 21,8.2264307 21,8.50574713 L21,15.4942529 C21,15.7735693 20.7761424,16 20.5,16 C20.2238576,16 20,15.7735693 20,15.4942529 L20,8.50574713 Z" id="Combined-Shape" fill="#000000"></path>
      <path d="M2,12 C2,17.5237146 6.47715289,22 12.0013189,22 L27.9986811,22 C33.521906,22 38,17.5225621 38,12 C38,6.47628536 33.5228471,2 27.9986811,2 L12.0013189,2 C6.47809399,2 2,6.47743786 2,12 Z M0,12 C0,5.372583 5.37380987,0 12.0013189,0 L27.9986811,0 C34.6268265,0 40,5.37112582 40,12 C40,18.627417 34.6261901,24 27.9986811,24 L12.0013189,24 C5.37317351,24 0,18.6288742 0,12 Z" id="SliderBTNOutline" fill="#000000" fill-rule="nonzero"></path>
    </g>
    <g id="Icons" transform="translate(-802.000000, -142.000000)"></g>
  </g>
</svg>
