<svg width="71px" height="98px" viewBox="0 0 71 98" version="1.1" xmlns="http://www.w3.org/2000/svg" xmlns:xlink="http://www.w3.org/1999/xlink">
  <g id="Home-/-About" stroke="none" stroke-width="1" fill="none" fill-rule="evenodd" opacity="0.9">
    <g id="1.0-About-Desktop" transform="translate(-558.000000, -903.000000)" stroke="#373E4D">
      <g id="Simplicity" transform="translate(546.000000, 904.000000)">
        <path d="M35.9890987,72.2050051 C35.9890987,69.6701431 34.5172434,66.8082021 32.2276906,65.6634258 C20.1257688,59.6124648 12.0305643,46.6928456 13.093571,31.9742921 C14.3201171,14.9661858 28.1392035,1.22886913 45.1473098,0.0840927387 C65.4262058,-1.30599287 82.2707726,14.7208765 82.2707726,34.5909238 C82.2707726,48.2464707 74.4208774,60.0213136 62.9731136,65.6634258 C60.6835608,66.8082021 59.2934752,69.1795247 59.2934752,71.7143867 L54.9596789,71.7143867 L54.9596789,39.8241873 L54.9596789,33.6914567 C54.9596789,30.1753578 58.1486988,27.3134168 61.5830279,27.3134168 C65.0173571,27.3134168 67.8792981,30.1753578 67.8792981,33.6096869 C67.8792981,37.0440161 65.0173571,39.905957 61.5830279,39.905957 L54.9596789,39.8241873 L40.2411253,39.8241873 L33.8630854,39.905957 C30.3469865,39.905957 27.5668153,37.0440161 27.5668153,33.6096869 C27.5668153,30.1753578 30.4287563,27.3134168 33.8630854,27.3134168 C37.2974146,27.3134168 40.1593556,30.1753578 40.1593556,33.6096869 L40.2411253,39.8241873 L40.2411253,67.5441298 L40.2411253,71.4690774 L40.2411253,76.3752619 L58.6393172,76.3752619 C58.8028567,76.3752619 59.0481659,76.3752619 59.2117054,76.4570317 C60.92887,76.7023409 62.2371859,78.1741963 62.2371859,79.9731306 C62.2371859,80.9543675 61.8283372,81.8538346 61.1741792,82.5079926 C60.5200213,83.1621505 59.6205541,83.5709992 58.6393172,83.5709992 L58.6393172,83.9798479 C60.601791,83.9798479 62.2371859,85.6152428 62.2371859,87.5777166 C62.2371859,88.5589535 61.8283372,89.4584206 61.1741792,90.1125786 C60.5200213,90.7667365 59.6205541,91.1755852 58.6393172,91.1755852 L57.7398501,91.1755852 C57.6580803,93.792217 53.1607445,96 47.6004021,96 C42.0400596,96 37.5427238,93.8739867 37.4609541,91.1755852 L36.5614869,91.1755852 C34.5990131,91.1755852 32.9636183,89.5401904 32.9636183,87.5777166 C32.9636183,86.5964797 33.372467,85.6970125 34.0266249,85.0428546 C34.6807829,84.3886966 35.58025,83.9798479 36.5614869,83.9798479 L36.5614869,83.5709992 C34.5990131,83.5709992 32.9636183,81.9356044 32.9636183,79.9731306 C32.9636183,78.9918937 33.372467,78.0924265 34.0266249,77.4382686 C34.5172434,76.9476501 35.2531711,76.5388014 35.9890987,76.4570317" id="Shape"></path>
      </g>
    </g>
  </g>
</svg>
