<svg width="97px" height="98px" viewBox="0 0 97 98" version="1.1" xmlns="http://www.w3.org/2000/svg" xmlns:xlink="http://www.w3.org/1999/xlink">
  <g id="Home-/-About" stroke="none" stroke-width="1" fill="none" fill-rule="evenodd">
    <g id="Why-Canvas-Copy" transform="translate(-417.000000, -1000.000000)">
      <g id="selling" transform="translate(418.000000, 1001.000000)">
        <path d="M5.05263158,31.3752122 C5.05263158,31.3752122 7.57894737,55.9049236 12.4685908,63.8098472 C14.7504244,67.4770798 19.6400679,71.8777589 24.2037351,71.8777589 C41.1544992,71.8777589 90.295416,71.8777589 90.4584041,71.8777589 C94.1256367,71.8777589 96.8964346,66.5806452 94.2886248,63.9728353 C84.4278438,54.1120543 83.8573854,31.3752122 83.8573854,31.3752122 L83.8573854,10.0237691 L65.6027165,10.0237691 L65.6027165,5.29711375 C65.6027165,2.36332767 63.2393888,0 60.3870968,0 L60.3870968,0 C57.5348048,0 55.1714771,2.36332767 55.1714771,5.29711375 L55.1714771,9.94227504 L28.7674024,9.94227504 L28.7674024,5.29711375 C28.7674024,2.36332767 26.4040747,7.23812634e-16 23.5517827,7.23812634e-16 L23.5517827,7.23812634e-16 C20.6994907,3.61906317e-16 18.336163,2.36332767 18.336163,5.29711375 L18.336163,9.94227504 L0,9.94227504 L0,25.1816638 L0,90.295416 C0,93.4736842 2.52631579,96 5.54159593,96 L78.3972835,96 C81.4940577,96 83.9388795,93.4736842 83.9388795,90.295416 L83.9388795,81.5755518" id="Shape" stroke="#373E4D" opacity="0.9"></path>
        <rect id="96x96-copy-2" x="0" y="0" width="96" height="96"></rect>
      </g>
    </g>
  </g>
</svg>
