<svg width="98px" height="80px" viewBox="0 0 98 80" version="1.1" xmlns="http://www.w3.org/2000/svg" xmlns:xlink="http://www.w3.org/1999/xlink">
  <g id="Home-/-About" stroke="none" stroke-width="1" fill="none" fill-rule="evenodd">
    <g id="1.0-Home-Desktop" transform="translate(-417.000000, -3880.000000)">
      <g id="Why-Canvas" transform="translate(0.000000, 2840.000000)">
        <g id="Page-1" transform="translate(418.000000, 432.000000)">
          <g id="Transparency" transform="translate(0.000000, 600.000000)">
            <rect id="96x96-copy-2" x="0" y="0" width="96" height="96"></rect>
            <path d="M32,22.9102931 L32,17.2579542 C32,12.7152245 35.7160794,9 40.2579542,9 L87.7420458,9 C92.2839206,9 96,12.7152245 96,17.2579542 L96,46.1599391 C96,50.7026688 92.2839206,54.4178933 87.7420458,54.4178933 L79.9431518,54.4178933 L80.5159084,64.9702936 L67.5553656,54.4178933 L40.2579542,54.4178933 C35.7160794,54.4178933 32,50.7026688 32,45.8205594 L32,34.0345951 C32,32.4496834 33.2848556,31.1648278 34.8697673,31.1648278 L55.7420458,31.1648278 C60.2839206,31.1648278 64,34.8809072 64,39.422782 L64,68.3264766 C64,72.8674966 60.2839206,76.583576 55.7420458,76.583576 L28.4446344,76.583576 L15.4840916,87.1359763 L16.0577031,76.583576 L8.25795421,76.583576 C3.7160794,76.583576 0,72.8674966 0,68.3264766 L0,39.422782 C0,34.8809072 3.7160794,31.1648278 8.25795421,31.1648278 L23.0846579,31.1648278" id="Stroke-7" stroke="#373E4D"></path>
          </g>
        </g>
      </g>
    </g>
  </g>
</svg>
